<?xml version="1.0" encoding="UTF-8"?>
<svg xmlns="http://www.w3.org/2000/svg" id="a" width="865.76" height="682.89" viewBox="0 0 865.76 682.89">
  <g>
    <circle cx="321.5" cy="154.56" r="12" fill="#002346"></circle>
    <path d="M321.5,167.06c-6.89,0-12.5-5.61-12.5-12.5s5.61-12.5,12.5-12.5,12.5,5.61,12.5,12.5-5.61,12.5-12.5,12.5Zm0-24c-6.34,0-11.5,5.16-11.5,11.5s5.16,11.5,11.5,11.5,11.5-5.16,11.5-11.5-5.16-11.5-11.5-11.5Z" fill="#0d2445"></path>
  </g>
  <g>
    <path d="M357.82,186.03s-11.33,21.53-8.33,36.53l-23-3-3.82-27.53,35.14-6h.01Z" fill="#002346"></path>
    <path d="M350.12,223.14l-24.07-3.14-3.93-28.38,36.62-6.25-.47,.9c-.11,.21-11.21,21.54-8.28,36.2l.14,.68h-.01Zm-23.18-4.04l21.94,2.86c-2.28-13.37,5.96-31.08,8.05-35.28l-33.68,5.75,3.7,26.67h-.01Z" fill="#0d2445"></path>
  </g>
  <g>
    <path d="M318.66,158.43s-23.92,8.91-31.54,52.02l26.38,10.11s9-11,10-12-2.09-50-3.55-50" fill="#002346"></path>
    <path d="M313.66,221.15l-27.1-10.39,.07-.41c7.58-42.9,31.62-52.31,31.86-52.4l.35,.94c-.24,.09-23.6,9.29-31.15,51.23l25.66,9.83c1.41-1.72,8.6-10.49,9.75-11.7,.91-3.05-2.17-47.37-3.44-49.35,.02,.04,.13,.14,.31,.14v-1c.28,0,.5,.18,.65,.54,.83,2.02,1.95,15.29,2.64,26.05,.57,8.72,1.4,23.46,.61,24.25-.97,.97-9.88,11.85-9.97,11.96l-.23,.28v.03Z" fill="#0d2445"></path>
  </g>
  <g>
    <circle cx="317" cy="176.06" r="10.5" fill="#002346"></circle>
    <path d="M317,187.06c-6.07,0-11-4.93-11-11s4.93-11,11-11,11,4.93,11,11-4.93,11-11,11Zm0-21c-5.51,0-10,4.49-10,10s4.49,10,10,10,10-4.49,10-10-4.49-10-10-10Z" fill="#0d2445"></path>
  </g>
  <g>
    <rect x="75.08" y="31.8" width="167.29" height="185.63" fill="#e6e65c"></rect>
    <path d="M242.87,217.93H74.58V31.3H242.87V217.93Zm-167.29-1H241.87V32.3H75.58V216.93Z" fill="#002346"></path>
  </g>
  <g>
    <path d="M203,560.47l-6-5.25s-53,27-46.69,63.85c-.02,5.78,4.65,10.49,10.43,10.51s10.49-4.65,10.51-10.43c.02-5.78-4.65-10.49-10.43-10.51-1.19,0-2.38,.2-3.51,.59h0s4.44-32.43,45.69-48.76h0Z" fill="#e1e1e2"></path>
    <path d="M160.78,630.08h-.04c-2.93-.01-5.68-1.16-7.75-3.24s-3.2-4.84-3.18-7.77c-6.29-36.7,46.43-64.02,46.96-64.29l.3-.15,6.87,6.01-.76,.3c-36.92,14.61-44.2,42.53-45.23,47.57,.93-.25,1.88-.39,2.87-.37,6.05,.02,10.95,4.96,10.93,11.01,0,2.93-1.16,5.68-3.24,7.75-2.07,2.05-4.81,3.18-7.73,3.18h0Zm36.15-74.26c-4.26,2.26-52.06,28.53-46.12,63.16,0,2.75,1.02,5.26,2.9,7.15,1.88,1.89,4.38,2.94,7.04,2.95h.04c2.65,0,5.14-1.03,7.02-2.89,1.89-1.88,2.94-4.38,2.95-7.04,.02-5.5-4.44-9.99-9.93-10.01h-.03c-1.13,0-2.24,.19-3.31,.56l-.77,.27,.11-.81c.04-.33,4.9-32.5,45.24-48.85l-5.13-4.49h0Z" fill="#002346"></path>
  </g>
  <g>
    <path d="M212.47,556.42l-15.47-1.2-11.12,2.9s-56.88,20.25-50.81,62.21c-.03,5.78,4.63,10.5,10.41,10.53s10.5-4.63,10.53-10.41c.03-5.78-4.63-10.5-10.41-10.53-1,0-2,.13-2.96,.41,0,0,9.58-40.74,58.8-50.27,0,0,30.49,7.94,35.89,21.28v-15.59s-15.74-5.96-24.86-9.33Z" fill="#e1e1e2"></path>
    <path d="M145.54,631.36h-.06c-2.93-.02-5.68-1.17-7.74-3.26-2.06-2.08-3.18-4.85-3.17-7.78-6.05-41.81,50.57-62.47,51.14-62.68l11.24-2.93,15.69,1.24c9.02,3.33,24.71,9.27,24.86,9.33l.32,.12v18.5l-.96-2.38c-5.08-12.56-33.45-20.42-35.44-20.96-44.41,8.65-56.39,43.33-58.07,49.07,.74-.15,1.51-.22,2.25-.22,6.05,.03,10.94,4.98,10.91,11.03-.02,2.93-1.17,5.68-3.26,7.74-2.07,2.04-4.8,3.17-7.71,3.17h0Zm51.5-75.63l-11.04,2.88c-.52,.19-56.38,20.58-50.44,61.65,0,2.74,1.01,5.25,2.88,7.14,1.87,1.89,4.37,2.95,7.03,2.96h.06c5.47,0,9.94-4.43,9.97-9.91,.03-5.5-4.42-10-9.91-10.03-.93,0-1.9,.13-2.82,.39l-.82,.24,.2-.83c.1-.41,10.22-41.16,59.19-50.65l.11-.02,.11,.03c1.19,.31,27.97,7.41,35.26,19.65v-13.13c-2.29-.87-16.17-6.11-24.47-9.18l-15.32-1.19h.01Z" fill="#002346"></path>
  </g>
  <g>
    <path d="M135.13,400.74h105.71v25H125.24v-15.11c0-5.46,4.41-9.88,9.87-9.89h.02Z" fill="#e6e65c"></path>
    <path d="M241.34,426.24H124.74v-15.61c0-2.77,1.07-5.38,3.03-7.34s4.56-3.04,7.34-3.05h106.23v26h0Zm-115.6-1h114.6v-24h-105.23c-2.5,0-4.86,.98-6.63,2.75s-2.74,4.13-2.74,6.64v14.61h0Z" fill="#002346"></path>
  </g>
  <g>
    <path d="M230.95,450.78h-96.54c-5.07,0-9.18-4.11-9.18-9.18v-15.83h115.61v15.13c0,5.46-4.42,9.88-9.88,9.88h0Z" fill="#fff"></path>
    <path d="M230.96,451.28h-96.55c-5.34,0-9.68-4.34-9.68-9.68v-16.33h116.61v15.63c0,5.72-4.66,10.38-10.38,10.38h0Zm-105.23-25.01v15.33c0,4.79,3.89,8.68,8.68,8.68h96.55c5.17,0,9.38-4.21,9.38-9.38v-14.63H125.73Z" fill="#002346"></path>
  </g>
  <g>
    <path d="M176,450.43h38.29v33.93c0,2.41-1.95,4.36-4.36,4.36h-29.54c-2.41,0-4.36-1.95-4.36-4.36v-33.93h-.03Z" fill="#e1e1e2"></path>
    <path d="M209.93,489.22h-29.54c-2.68,0-4.86-2.18-4.86-4.86v-33.93h.47v-.5h38.79v34.43c0,2.68-2.18,4.86-4.86,4.86h0Zm-33.4-38.29v33.43c0,2.13,1.73,3.86,3.86,3.86h29.54c2.13,0,3.86-1.73,3.86-3.86v-33.43h-37.26Z" fill="#002346"></path>
  </g>
  <g>
    <rect x="188.1" y="488.72" width="14.93" height="62.1" fill="#fff"></rect>
    <path d="M203.53,551.32h-15.93v-63.1h15.93v63.1Zm-14.93-1h13.93v-61.1h-13.93v61.1Z" fill="#002346"></path>
  </g>
  <g>
    <rect x="177.94" y="546.06" width="34.9" height="12.07" rx="2.53" ry="2.53" fill="#e6e65c"></rect>
    <path d="M210.31,558.63h-29.84c-1.67,0-3.03-1.36-3.03-3.03v-7.01c0-1.67,1.36-3.03,3.03-3.03h29.84c1.67,0,3.03,1.36,3.03,3.03v7.01c0,1.67-1.36,3.03-3.03,3.03Zm-29.84-12.07c-1.12,0-2.03,.91-2.03,2.03v7.01c0,1.12,.91,2.03,2.03,2.03h29.84c1.12,0,2.03-.91,2.03-2.03v-7.01c0-1.12-.91-2.03-2.03-2.03h-29.84Z" fill="#002346"></path>
  </g>
  <g>
    <path d="M537.92,202.59l-7.61,44.54c-1.6,9.31-9.68,16.12-19.13,16.12h-54.88c-5.71,0-10.34-4.61-10.35-10.31,0-.33,.02-.67,.05-1,1.41-14.95,6.68-41.24,25.88-57,2.71-2.2,6.09-3.39,9.58-3.36l47.32,.16c5.14,.02,9.29,4.19,9.27,9.33,0,.51-.05,1.02-.13,1.52h0Z" fill="#fff"></path>
    <path d="M456.28,263.75c-2.88,0-5.6-1.12-7.64-3.16-2.05-2.04-3.18-4.76-3.18-7.65,0-.35,.02-.7,.05-1.04,1.37-14.55,6.58-41.35,26.06-57.34,2.79-2.27,6.33-3.49,9.9-3.47l47.32,.16c5.4,.02,9.79,4.43,9.77,9.83,0,.53-.05,1.07-.14,1.6h0l-7.61,44.54c-1.65,9.58-9.9,16.54-19.62,16.54h-54.91Zm25.06-71.68c-3.33,0-6.57,1.15-9.15,3.25-19.2,15.76-24.34,42.26-25.7,56.66-.03,.32-.04,.63-.04,.95,0,2.63,1.03,5.09,2.89,6.95,1.86,1.85,4.32,2.87,6.94,2.87h54.9c9.23,0,17.07-6.6,18.64-15.7l7.61-44.54c.08-.48,.12-.96,.12-1.44,.02-4.85-3.92-8.81-8.77-8.83l-47.32-.16h-.12Z" fill="#002346"></path>
  </g>
  <g>
    <polygon points="239.57 499 217.22 622.39 302.24 622.39 329.04 497.24 326.59 461.12 303.84 449.55 239.57 499" fill="#e6e65c"></polygon>
    <path d="M302.64,622.89h-86.02l.11-.59,22.38-123.58,.15-.12,64.52-49.64,23.28,11.84,2.47,36.47-26.9,125.61h0Zm-84.83-.99h84.02l26.7-124.69-2.43-35.77-22.22-11.3-63.87,49.14-22.21,122.61h0Z" fill="#002346"></path>
  </g>
  <g>
    <path d="M299.66,209.49s-24.1-3.25-37.19,22.11l-22.9,43.62s-18.54,33,13.9,39.54c0,0-20.17,30-22.08,79.35l-4.09,79.34s-1.64,10.36-4.64,21.54c0,0-.82,4.09,28.09,4.36h67.07s-.27-22.35-1.63-32.72c0,0,7.63,17.73,7.9,30.82l25.91-1.09s-8.73-69.26-14.73-96.8c0,0-8.72-59.44-10.09-78.26,0,0-10.2-13.61-.54-31.08,0,0,9.77,0,17.86-4.1,6-3.13,9.74-9.35,9.68-16.12v-2.1s20.52,23.87,41.88,33.73c6.48,2.98,13.95,2.92,20.39-.16,5.86-2.96,11.25-6.76,16-11.29,7.58-7.08,13.91-15.39,18.72-24.58l10.83-20.6-21-12.21-35.61,33.58-36.57-32.56s-15.41-16-33-19.19l-34.16-5.13h0Z" fill="#8A2BE2"></path>
    <path d="M318.33,499.85h-67.58c-21.92-.2-27.11-2.61-28.26-4.02-.38-.47-.34-.84-.32-.94,2.97-11.06,4.62-21.42,4.64-21.52l4.09-79.29c1.74-45.09,18.93-74.43,21.77-78.98-8.59-1.88-14.33-5.84-17.05-11.77-5.51-12.02,3.16-27.69,3.53-28.35l22.89-43.61c13.1-25.38,37.46-22.41,37.7-22.37h0l34.16,5.13c17.56,3.18,33.13,19.18,33.29,19.34l36.2,32.23,35.55-33.52,21.74,12.64-11.05,21.02c-4.85,9.26-11.18,17.58-18.82,24.71-4.78,4.56-10.21,8.39-16.12,11.37-6.6,3.16-14.18,3.22-20.82,.17-18.73-8.65-37.01-28.24-41.17-32.87v.78c.06,6.99-3.75,13.33-9.95,16.56-7.32,3.71-16.08,4.11-17.79,4.15-9.16,16.87,.54,30.15,.64,30.29l.09,.12v.15c1.36,18.59,10.01,77.63,10.1,78.22,5.93,27.21,14.64,96.12,14.73,96.81l.07,.54-26.96,1.13v-.51c-.21-9.44-4.32-21.47-6.52-27.24,1.01,11.12,1.24,28.93,1.24,29.13v.51h-.02Zm-95.16-4.82c.13,.33,2.08,3.58,27.59,3.81h66.56c-.05-3.38-.39-22.8-1.62-32.15l-.47-3.57,1.42,3.31c.08,.18,7.48,17.51,7.93,30.5l24.86-1.05c-.83-6.54-9.01-70.29-14.65-96.22-.09-.63-8.7-59.41-10.09-78.19-.99-1.42-9.71-14.83-.49-31.5l.14-.26h.29c.1,0,9.75-.05,17.63-4.05,5.86-3.05,9.46-9.06,9.41-15.67v-3.45l.88,1.02c.21,.24,20.7,23.9,41.71,33.6,6.37,2.93,13.64,2.87,19.96-.16,5.81-2.93,11.15-6.7,15.87-11.2,7.56-7.06,13.83-15.29,18.62-24.45l10.61-20.18-20.26-11.78-35.67,33.64-36.91-32.86c-.18-.19-15.53-15.95-32.76-19.07l-34.14-5.13c-.41-.05-23.96-2.8-36.68,21.84l-22.9,43.62c-.09,.17-8.79,15.91-3.5,27.46,2.66,5.79,8.39,9.61,17.05,11.35l.73,.15-.42,.62c-.2,.3-20.11,30.47-21.99,79.09l-4.09,79.35c-.02,.16-1.67,10.51-4.63,21.56v.02Z" fill="#002346"></path>
  </g>
  <g>
    <path d="M324.64,290.22s16-.25,22.93-8c0,0,3.39,5.86-5.39,10.88,0,0-1,1.26,6,3.59,0,0,24.08,6.45,23.54,9.85-1.72,1.13-3.69,1.82-5.74,2,0,0-15.13,14.52-45.66,0,.04-.04-1.75-8.45,4.32-18.32Z" fill="#f2b3c1"></path>
    <path d="M345.62,315.45c-6.83,0-15.34-1.62-25.52-6.45l-.64-.3,.33-.33c-.4-3-.62-10.2,4.42-18.4l.14-.23h.27c.16,0,15.86-.34,22.56-7.84l.46-.51,.35,.6c.05,.09,1.21,2.13,.46,4.88-.67,2.47-2.61,4.67-5.79,6.54,.18,.31,1.1,1.31,5.66,2.82,5.72,1.53,24.44,6.84,23.88,10.4l-.04,.22-.18,.12c-1.73,1.15-3.74,1.86-5.8,2.07-1.04,.9-7.93,6.42-20.57,6.42h.01Zm-24.84-7.25c29.71,14.01,44.7,.12,44.85-.03l.13-.12,.18-.02c1.87-.16,3.69-.77,5.28-1.77-.5-1.93-12.17-6.15-23.16-9.1-3.97-1.32-6.05-2.49-6.38-3.59-.1-.35-.01-.64,.11-.8l.14-.12c6.64-3.8,6.03-7.97,5.48-9.55-6.78,6.83-20.31,7.53-22.49,7.6-4.77,7.9-4.51,14.77-4.14,17.49h0Z" fill="#002346"></path>
  </g>
  <path d="M324.79,287.13h-.12l-68.84-17.56c-.26-.08-.42-.34-.36-.61,.06-.26,.33-.43,.59-.37h.02l68.84,17.56c.28,.04,.47,.29,.43,.57s-.29,.47-.57,.43v-.03h.01Z" fill="#002346"></path>
  <path d="M279.3,275.52h-.18c-.26-.1-.39-.39-.29-.64h0c3.19-8.57,3.87-23.22,3.88-23.37,0-.28,.22-.5,.5-.5s.5,.22,.5,.5c0,.15-.68,15-3.93,23.68-.07,.2-.27,.34-.48,.34h0Z" fill="#002346"></path>
  <path d="M280.16,272.84c-.07,.01-.14,.01-.21,0l-14.53-6.86c-.25-.12-.36-.42-.24-.67s.42-.36,.67-.24l14.53,6.87c.25,.12,.35,.42,.23,.67-.08,.17-.26,.28-.45,.28v-.05h0Z" fill="#002346"></path>
  <path d="M284.1,239.62c-.26,0-.47-.2-.5-.45-1.22-7.65-5.12-14.62-11-19.67-.21-.18-.23-.5-.05-.7,.18-.21,.5-.23,.7-.06,6.09,5.21,10.12,12.42,11.37,20.34,.03,.27-.17,.51-.44,.54h-.08Z" fill="#002346"></path>
  <path d="M335.88,252c-.16,0-.3-.08-.4-.2l-8.27-11c-3.21,4.45-11.69,10.79-12.07,11.06-.13,.1-.31,.13-.47,.07-.15-.06-.27-.19-.31-.35-4.66-19.34-27.72-40.22-27.95-40.43-.19-.19-.2-.5,0-.69h0c.19-.2,.51-.2,.71,0h0c.23,.21,22.94,20.77,28.06,40.2,2.13-1.63,9.3-7.27,11.62-10.94,.09-.13,.24-.22,.4-.23,.16,0,.32,.07,.42,.2l8.13,10.76c1.55-4.66,8.61-26,9.14-32,.03-.27,.27-.47,.54-.45,.27,.02,.47,.26,.45,.53h0c-.6,6.78-9.12,32.06-9.49,33.13-.05,.18-.21,.31-.39,.34h-.12Z" fill="#002346"></path>
  <path d="M322.1,278.34h-.1c-.27-.08-.42-.35-.35-.62,.06-.19,5.3-19.25,5.06-37.73,0-.28,.22-.5,.5-.51,.27,0,.49,.22,.5,.49,.24,18.63-5,37.83-5.09,38-.07,.23-.28,.38-.52,.37h0Z" fill="#002346"></path>
  <path d="M353.17,239.62h0c-.27-.02-.48-.25-.46-.52h0c.46-7.01,.93-15.56,.93-15.64,0-.27,.22-.48,.49-.47h.04c.27,.02,.48,.25,.47,.52,0,.09-.47,8.67-.93,15.65-.02,.28-.26,.48-.54,.46h0Z" fill="#002346"></path>
  <path d="M347.57,282.7c-.13,0-.26-.05-.35-.14-.19-.19-.19-.51,0-.7,5.11-5.26,4.48-13.87,4.47-14,.26-8.79,1.89-13,2-13.16,.1-.25,.38-.38,.63-.28h0c.25,.09,.38,.36,.29,.61,0,0,0,.02-.01,.03,0,.05-1.63,4.24-1.88,12.78,0,.31,.68,9.09-4.75,14.67-.1,.12-.25,.19-.41,.19h.01Z" fill="#002346"></path>
  <path d="M262.33,622.89h-.09c-.27-.05-.45-.31-.41-.58l16.82-97.15c.05-.28,.31-.46,.58-.41,.28,.05,.46,.31,.42,.58h0l-16.82,97.15c-.05,.24-.26,.41-.5,.41Z" fill="#002346"></path>
  <g>
    <path d="M375.48,398.4h132.88c17.53-.02,32.64-12.34,36.19-29.5l14.83-72c2.04-9.85-4.29-19.48-14.14-21.52-1.22-.25-2.46-.38-3.7-.38h-112.11c-3.59,0-7.06,1.22-9.85,3.48-13.07,10.62-48.5,46.41-44.1,119.92h0Z" fill="#fff"></path>
    <path d="M508.36,398.9h-133.35l-.03-.47c-1.9-31.69,3.34-59.88,15.55-83.8,10.02-19.62,22.3-31.31,28.73-36.54,2.86-2.32,6.46-3.59,10.15-3.59h112.14c1.27,0,2.55,.13,3.79,.39,4.89,1.01,9.1,3.87,11.84,8.05s3.7,9.17,2.68,14.07l-14.83,72c-3.58,17.31-19.01,29.88-36.68,29.9h.01Zm-132.41-1.01h132.41c17.2-.02,32.21-12.26,35.7-29.1l14.83-72c.96-4.63,.06-9.36-2.54-13.31s-6.58-6.66-11.21-7.62c-1.18-.24-2.39-.37-3.59-.37h-112.14c-3.45,0-6.83,1.2-9.52,3.37-14.61,11.87-48.09,47.21-43.94,119.03Z" fill="#002346"></path>
  </g>
  <g>
    <path d="M316,189.32s-3.63,13.39-16.33,20.17c0,0,23.08,13.12,27.52,30.48l8.7-33.26-19.89-17.39Z" fill="#f2b3c1"></path>
    <path d="M327.18,241.97l-.48-1.87c-4.34-16.96-27.05-30.04-27.28-30.17l-.79-.45,.8-.43c12.35-6.59,16.05-19.73,16.08-19.86l.21-.77,20.73,18.12-.08,.3-9.19,35.13h0Zm-26.51-32.46c3.89,2.38,21.61,13.85,26.49,28.59l8.17-31.22-19.08-16.68c-.97,2.88-5.13,13.34-15.57,19.31h-.01Z" fill="#002346"></path>
  </g>
  <g>
    <rect x="311.78" y="161.58" width="57.03" height="37.02" rx="18.51" ry="18.51" transform="translate(-3.81 352.8) rotate(-54.54)" fill="#f2b3c1"></rect>
    <path d="M334.46,207.26c-3.92,0-7.73-1.21-10.99-3.53-4.14-2.95-6.88-7.33-7.72-12.33-.84-5.01,.32-10.04,3.26-14.18l11.61-16.3c6.08-8.54,17.98-10.54,26.51-4.46h0c8.54,6.08,10.54,17.97,4.46,26.51l-11.61,16.3c-2.95,4.14-7.33,6.88-12.33,7.72-1.07,.18-2.13,.27-3.19,.27h0Zm11.67-53.32c-5.63,0-11.18,2.63-14.69,7.56l-11.61,16.3c-2.79,3.92-3.89,8.69-3.09,13.43,.8,4.74,3.39,8.89,7.31,11.68s8.69,3.89,13.43,3.09,8.89-3.39,11.68-7.31l11.61-16.3c5.76-8.09,3.87-19.36-4.22-25.12-3.16-2.25-6.81-3.33-10.42-3.33h0Z" fill="#002346"></path>
  </g>
  <g>
    <path d="M315.24,168.22s-2.11-7.77,3.42-9.79h14.78s13.27-8.6,23.33,2.38l.32-.14c3.51-1.47,7.56,.18,9.03,3.7,.21,.51,.36,1.04,.45,1.58,.77,4.57,.15,12.41-8.78,21.47,0,0,3.7-11.44,.08-20.18,0,0-1.1-5.46-15.19,0,0,0-9.33,4-12.26,1.44,0,0,.55,4.76-5.22,5.86l-9.96-6.32h0Z" fill="#002346"></path>
    <path d="M356.67,189.27l.65-2.01c.04-.11,3.6-11.37,.09-19.83-.03-.12-.23-.89-1.33-1.48-1.68-.89-5.33-1.3-13.21,1.75-.35,.15-8.29,3.52-11.96,1.86-.16,1.56-1.07,4.6-5.6,5.46l-.19,.04-10.29-6.53-.05-.19c-.02-.08-2.16-8.24,3.73-10.39l.17-.03h14.64c1.42-.85,13.94-7.92,23.6,2.28,3.77-1.58,8.11,.21,9.69,3.97,.23,.54,.39,1.11,.48,1.7,.84,5.01-.02,12.87-8.92,21.9l-1.48,1.5h-.02Zm-3.78-24.95c1.74,0,2.92,.35,3.72,.78,1.49,.82,1.74,1.99,1.75,2.04,2.77,6.66,1.34,14.8,.44,18.48,7.32-8.11,8.03-15.07,7.27-19.59-.08-.51-.22-1-.42-1.47-1.36-3.25-5.12-4.8-8.38-3.43l-.64,.28-.24-.26c-9.65-10.53-22.16-2.64-22.69-2.3l-.12,.08h-14.84c-4.49,1.72-3.33,7.84-3.07,8.98l9.62,6.1c5.02-1.06,4.64-5.1,4.62-5.27l-.14-1.27,.96,.84c2.21,1.93,9.22-.45,11.73-1.52,4.75-1.84,8.08-2.46,10.41-2.46h.02Z" fill="#0d2445"></path>
  </g>
  <g>
    <circle cx="318.66" cy="173.79" r="6.54" fill="#f2b3c1"></circle>
    <path d="M318.66,180.83c-3.88,0-7.04-3.16-7.04-7.04s3.16-7.04,7.04-7.04,7.04,3.16,7.04,7.04-3.16,7.04-7.04,7.04Zm0-13.08c-3.33,0-6.04,2.71-6.04,6.04s2.71,6.04,6.04,6.04,6.04-2.71,6.04-6.04-2.71-6.04-6.04-6.04Z" fill="#002346"></path>
  </g>
  <path d="M392.51,272.84c-.18,0-.35-.1-.44-.26-.14-.23-.06-.53,.17-.67h.02l10.88-5.9c.24-.13,.55-.04,.68,.2,.13,.24,.04,.55-.2,.68l-10.88,5.95c-.07,.02-.15,.03-.23,0h0Z" fill="#002346"></path>
  <path d="M516,387.75h-.12c-.27-.07-.43-.34-.36-.61h0l26.76-100.64c.07-.27,.34-.43,.61-.36h0c.27,.07,.43,.35,.36,.62l-26.73,100.62c-.06,.23-.28,.39-.52,.37Z" fill="#fff"></path>
  <g>
    <path d="M325.18,321.3s6.32-.44,6.37-8.5c-3.84-1.14-7.58-2.58-11.19-4.3,.23,4.67,1.91,9.14,4.82,12.8Z" fill="#8A2BE2"></path>
    <path d="M324.95,321.82l-.16-.21c-2.99-3.76-4.7-8.29-4.93-13.09l-.04-.83,.75,.36c3.58,1.7,7.32,3.14,11.12,4.27l.36,.11v.38c-.05,8.43-6.77,8.99-6.84,9l-.26,.02h0Zm-4.04-12.51c.36,4.19,1.9,8.13,4.48,11.46,1.12-.18,5.44-1.27,5.64-7.6-3.45-1.05-6.85-2.34-10.13-3.86h0Z" fill="#002346"></path>
  </g>
  <polygon points="222.66 622.39 222.66 629.97 238.77 634.76 242.37 622.39 222.66 622.39" fill="#f9b499"></polygon>
  <path d="M219.16,644.55s-1.53-20.53,6.29-16l13.32,6.19v9.79l-19.61,.02h0Z" fill="#e6e65c"></path>
  <g>
    <rect x="212.85" y="644.55" width="218.95" height="6.54" fill="#fff"></rect>
    <path d="M432.3,651.59H212.35v-7.54h219.95v7.54Zm-218.95-1h217.95v-5.54H213.35v5.54h0Z" fill="#002346"></path>
  </g>
  <g>
    <path d="M424.58,644.55l-28.58-63.15,20.22-38.18h-10.57l46.85-77.33h-1.93s-15.4,23.42-36.26,24.06l-70.27,.64-35,52.63-13.48-.65-51.66,34.34-24.77,67.64h205.45Z" fill="#fff"></path>
    <path d="M425.36,645.05H218.41l25.07-68.47,51.93-34.52,13.36,.64,34.99-52.61,70.54-.64c20.34-.62,35.69-23.6,35.85-23.83l.15-.23h3.09l-46.85,77.33h10.51l-20.49,38.7,28.8,63.63Zm-205.51-1h203.96l-28.36-62.67,.12-.22,19.83-37.45h-10.63l46.85-77.33h-.78c-1.67,2.42-16.74,23.45-36.51,24.06l-70.02,.64-35.01,52.65-13.6-.66-51.39,34.16-24.47,66.81h.01Z" fill="#002346"></path>
  </g>
  <path d="M385.11,578.69h-122.79c-.28,0-.5-.22-.5-.5s.22-.5,.5-.5h122.79c.28,0,.5,.22,.5,.5s-.22,.5-.5,.5Z" fill="#002346"></path>
  <g>
    <path d="M344,490.59l2.25-3.53h53.07c6.39,.03,12.41-2.96,16.26-8.06l31.42-42,69,35.61-52.64,86.49s71.52,65.51,90.34,85.45h6.73v6.54h-128.63v-6.54h-7.22l-28.58-63.15,20.22-38.18h-10.57l46.85-77.33h-1.93s-14.7,22.93-36.26,24.06l-70.31,.64h0Z" fill="#fff"></path>
    <path d="M560.93,651.59h-129.63v-6.54h-7.04l-28.81-63.67,.12-.22,19.83-37.45h-10.63l46.85-77.33h-.77c-1.63,2.42-16.1,22.99-36.5,24.06l-71.25,.65,2.89-4.54h53.42c6.17,0,12.07-2.93,15.78-7.86l31.67-42.34,69.85,36.05-.28,.46-52.43,86.14c5.09,4.67,71.7,65.8,89.92,85.04h7.01v7.54h0Zm-128.63-.99h127.63v-5.54h-6.45l-.15-.16c-18.59-19.7-89.6-84.77-90.31-85.42l-.3-.28,52.57-86.38-68.15-35.17-31.17,41.66c-3.92,5.2-10.14,8.28-16.66,8.26h-52.79l-1.61,2.52,69.39-.63c21.03-1.1,35.7-23.6,35.84-23.83l.15-.23h3.09l-46.85,77.33h10.51l-20.49,38.7,28.35,62.63h7.4v6.54h0Z" fill="#002346"></path>
  </g>
  <path d="M480,509.94c-.07,.01-.14,.01-.21,0-4.23-1.9-6.14-4.22-7-5.83-.48-.93-.73-1.96-.73-3-.11-7.1,7.7-9.84,7.78-9.87,.26-.09,.55,.05,.64,.32s-.05,.55-.32,.64h0c-.07,0-7.2,2.54-7.1,8.9,0,.88,.21,1.75,.61,2.53,.79,1.48,2.55,3.61,6.53,5.39,.25,.11,.37,.41,.26,.66-.09,.17-.27,.27-.46,.27h0Z" fill="#fff"></path>
  <path d="M463.36,559.6c-.1,0-.2-.03-.28-.08-.19-.13-19.89-12.84-43.11-16.89-.27-.05-.46-.3-.41-.58h0c.04-.27,.3-.45,.56-.4h.02c23.43,4.08,43.29,16.9,43.49,17,.23,.15,.3,.46,.15,.69-.09,.15-.24,.25-.42,.26h0Z" fill="#fff"></path>
  <g>
    <path d="M447,437l-31.42,42c-3.74,5.21-9.81,8.24-16.22,8.11l-181.18-.27c-3.15,0-5.71-2.56-5.71-5.71,0-1.37,.49-2.69,1.39-3.73l42.6-49.54c9.11-10.6,22.19-16.99,36.15-17.67l65.7-3.23,74.77,4.43s14.41-3.36,30.82,7.13l69.56,40.86c4.25,2.49,6.1,7.67,4.39,12.29h0c-1.94,5.27-7.77,7.97-13.04,6.03-.42-.15-.82-.33-1.22-.54l-76.59-40.16h0Z" fill="#fff"></path>
    <path d="M399.75,487.61h-.4l-181.17-.27c-1.66,0-3.22-.65-4.39-1.82s-1.82-2.73-1.82-4.39c0-1.49,.54-2.93,1.51-4.05l42.6-49.54c9.16-10.66,22.47-17.16,36.5-17.84l65.7-3.23,74.76,4.43c1.16-.24,15.34-2.88,31.13,7.21l69.54,40.85c4.46,2.62,6.4,8.04,4.61,12.89-2.03,5.52-8.16,8.35-13.68,6.33-.44-.16-.87-.35-1.28-.57l-76.21-39.96-31.17,41.66c-3.76,5.22-9.8,8.31-16.23,8.31h0Zm-41.47-80.17l-65.65,3.23c-13.76,.67-26.81,7.05-35.8,17.5l-42.6,49.54c-.82,.95-1.26,2.15-1.27,3.4,0,1.39,.54,2.7,1.52,3.68,.98,.98,2.29,1.53,3.68,1.53l181.18,.27c6.27,.13,12.16-2.83,15.81-7.9l31.68-42.35,.38,.2,76.59,40.16c.37,.2,.76,.37,1.16,.51,5,1.84,10.56-.73,12.4-5.73,1.63-4.4-.13-9.31-4.17-11.69l-69.56-40.86c-16.04-10.25-30.31-7.11-30.45-7.07l-.07,.02h-.07l-74.77-4.43h.01Z" fill="#002346"></path>
  </g>
  <g>
    <path d="M499.71,355.34h0c-1.56,0-2.83-1.27-2.83-2.83v-8.31c0-1.56,1.27-2.83,2.83-2.83h38.43c2.55,0,4.62,2.07,4.62,4.62h0v11.92c0,1.92-1.54,3.47-3.46,3.48h-.01c-2.28-3.82-6.43-6.13-10.88-6.05h-28.7Z" fill="#fff"></path>
    <path d="M539.02,361.89l-.16-.24c-2.18-3.66-6.18-5.9-10.44-5.81h-28.71c-1.84,0-3.33-1.49-3.33-3.33v-8.31c0-1.84,1.49-3.33,3.33-3.33h38.43c2.82,0,5.12,2.3,5.12,5.12v11.92c0,1.06-.41,2.06-1.15,2.81s-1.74,1.17-2.8,1.17h-.29Zm-10.38-7.05c4.42,0,8.57,2.29,10.93,6.04,.7-.06,1.34-.36,1.83-.86,.56-.56,.87-1.31,.86-2.1v-11.91c0-2.28-1.85-4.13-4.12-4.13h-38.43c-1.29,0-2.33,1.05-2.33,2.33v8.31c0,1.28,1.04,2.33,2.33,2.33h28.93Z" fill="#002346"></path>
  </g>
  <path d="M513.88,252h0c-.28,0-.49-.24-.48-.52h0c1.07-28,10.06-42.25,10.15-42.39,.16-.22,.47-.28,.7-.11,.21,.15,.27,.43,.14,.65-.09,.14-8.93,14.19-10,41.89-.01,.27-.24,.49-.51,.48h0Z" fill="#002346"></path>
  <path d="M389.07,472.74H240.84c-.28,0-.5-.22-.5-.5s.22-.5,.5-.5h148.23c5.43,.02,10.58-2.46,13.93-6.74l34.56-44.06c.18-.21,.49-.25,.71-.08,.21,.17,.25,.48,.08,.7l-34.56,44.06c-3.55,4.52-8.98,7.14-14.72,7.12h0Z" fill="#fff"></path>
  <g>
    <path d="M466.58,299.11c-12.11,.47-23.14,7.09-29.25,17.55l-12.68,21.8-12.65-8.63s-6.74,12.2-16.25,15l17.25,22.57,83,26.16s6.4-7.72,5.18-24.37c-.84-1.22-1.35-2.64-1.47-4.12v-9.73c-1.51,.06-2.77-1.12-2.83-2.63v-8.51s-.07-2.22,2.83-2.83h37.73s16.77-3.61,9.57-20.56c-1.01-2.42-2.59-4.56-4.6-6.25-4-3.37-12.68-9.11-27.16-12.25-1.71-.25-3.36-.79-4.9-1.58-.9-.45-1.74-1.01-2.51-1.66-.78-.63-3.4-1.89-13.15-.93l-8.69,7.67-18-2-1.42-4.7h0Z" fill="#e6e65c"></path>
    <path d="M496.17,394.14l-83.47-26.31-.1-.13-17.69-23.15,.7-.21c9.2-2.71,15.89-14.64,15.95-14.76l.27-.48,12.66,8.64,12.41-21.34c6.23-10.67,17.32-17.32,29.66-17.8l.39-.02,1.44,4.75,17.45,1.94,8.65-7.63,.16-.02c7.13-.7,11.8-.34,13.51,1.04,.75,.63,1.56,1.17,2.42,1.6,1.5,.77,3.09,1.29,4.75,1.53,14.92,3.24,23.58,9.13,27.41,12.36,2.06,1.73,3.7,3.96,4.74,6.44,2.27,5.35,2.44,9.96,.49,13.72-3.05,5.88-10.12,7.46-10.42,7.52h-37.79c-2.38,.53-2.38,2.26-2.38,2.33v8.51c.05,1.23,1.08,2.18,2.31,2.14l.52-.02v10.25c.11,1.35,.59,2.69,1.38,3.84l.08,.11v.14c1.23,16.66-5.02,24.4-5.28,24.73l-.21,.26v.02Zm-82.88-27.17l82.51,26.01c1.05-1.48,5.91-9.14,4.88-23.62-.85-1.26-1.36-2.73-1.48-4.25v-9.29c-1.55-.19-2.77-1.48-2.83-3.09v-8.54c-.03-.9,.61-2.77,3.23-3.32h37.77c.62-.16,6.99-1.8,9.69-7.01,1.8-3.47,1.62-7.8-.53-12.86-.98-2.34-2.52-4.43-4.46-6.06-3.76-3.17-12.26-8.96-26.95-12.14-1.73-.26-3.43-.81-5.02-1.62-.93-.47-1.81-1.05-2.6-1.72-.68-.55-3.28-1.73-12.62-.83l-8.74,7.71-18.55-2.06-1.4-4.64c-11.84,.59-22.46,7.03-28.45,17.29l-12.95,22.26-12.65-8.63c-1.34,2.26-7.31,11.7-15.59,14.54l16.72,21.88h.02Z" fill="#002346"></path>
  </g>
  <g>
    <path d="M402.58,370s-41.55-10.08-53.42,8.63c0,0-19.92,22.86-29.27,46.6,0,0,23.69,2.51,38.26,17.08l8.85-13.65s-4.68-4.86,1.25-6.66c0,0,15.29-3.78,36,16.91l23.93-27.86,4.95,.29s12.77-3.47,30.82,7.13l22.12,13s15.72-2.71,14.11-21.74c-1.24-12.95-9.43-24.2-21.37-29.37-8.66-3.71-17.64-6.62-26.83-8.68,0,0-38.1-13.44-49.4-1.68h0Z" fill="#8A2BE2"></path>
    <path d="M358.23,443.1l-.44-.44c-14.27-14.27-37.72-16.91-37.96-16.94l-.65-.07,.24-.61c9.27-23.55,29.16-46.52,29.36-46.75,11.5-18.14,49.68-9.78,53.64-8.85,11.62-11.5,48.17,1.21,49.72,1.76,9.14,2.05,18.2,4.98,26.86,8.69,12.11,5.24,20.41,16.65,21.67,29.78,1.63,19.27-14.36,22.25-14.52,22.28l-.18,.03-22.28-13.09c-17.63-10.35-30.31-7.11-30.44-7.08l-.08,.02-4.78-.28-24.12,28.08-.38-.38c-20.23-20.21-35.38-16.81-35.53-16.78-1.46,.44-2.33,1.12-2.56,2-.37,1.43,.99,3.25,1.55,3.83l.28,.29-9.4,14.5h0Zm-37.64-18.27c3.89,.53,24.28,3.89,37.47,16.71l8.31-12.82c-.61-.73-2.01-2.65-1.53-4.47,.32-1.24,1.42-2.16,3.26-2.71,.66-.16,15.64-3.57,36.12,16.66l23.74-27.64,5.12,.3c1.22-.31,13.64-3.06,31.12,7.2l21.96,12.9c1.78-.37,15-3.69,13.52-21.17-1.23-12.76-9.3-23.86-21.07-28.95-8.61-3.69-17.6-6.6-26.74-8.65-.43-.15-37.98-13.21-48.93-1.82l-.2,.21-.28-.07c-.41-.1-41.34-9.78-52.88,8.41-.24,.29-19.68,22.74-28.99,45.92h0Z" fill="#002346"></path>
  </g>
  <g>
    <path d="M386.53,425.75s-1.53,4.35-9.53,8.41c0,0-3.76-2-10-5.5,0,0-3.89-3.76-.28-6.13,.94-.58,2.02-.91,3.13-.94,2.65-.14,8.76,.13,16.68,4.16Z" fill="#8A2BE2"></path>
    <path d="M376.99,434.72l-.23-.12s-3.84-2.04-10.01-5.51l-.1-.08c-.09-.08-2.16-2.11-1.95-4.29,.1-1.04,.69-1.92,1.75-2.62,1.03-.64,2.2-.99,3.39-1.02,2.91-.15,9.01,.19,16.92,4.21l.39,.2-.15,.41c-.07,.19-1.69,4.59-9.78,8.69l-.23,.12h0Zm-9.69-6.46c5.27,2.96,8.79,4.85,9.7,5.34,6.13-3.17,8.28-6.49,8.87-7.62-7.78-3.86-13.75-4.01-16-3.89-1.03,.03-2.03,.33-2.89,.87-.79,.52-1.22,1.13-1.29,1.87-.15,1.55,1.34,3.16,1.61,3.44h0Z" fill="#002346"></path>
  </g>
  <g>
    <path d="M402.24,437l-10.36,10.71-11.19-6.55s4.79-6.16-.66-8.79c0,0,5.57-4.42,6.5-6.63,5.89,2.74,11.22,6.56,15.71,11.26Z" fill="#f2b3c1"></path>
    <path d="M391.97,448.34l-12.02-7.04,.35-.45s2.33-3.05,1.75-5.55c-.25-1.05-1-1.89-2.23-2.48l-.72-.35,.62-.5c1.52-1.21,5.63-4.72,6.35-6.43l.2-.48,.47,.22c5.97,2.78,11.31,6.6,15.86,11.37l.33,.35-10.97,11.34h.01Zm-10.55-7.34l10.38,6.08,9.75-10.08c-4.28-4.4-9.25-7.97-14.79-10.6-1.13,1.92-4.47,4.77-5.83,5.89,1.12,.7,1.82,1.64,2.09,2.79,.55,2.35-.91,4.9-1.6,5.93h0Z" fill="#002346"></path>
  </g>
  <g>
    <path d="M303.45,432.33c-2.78,1.08-4.75,3.6-5.12,6.56,0,0,33.84,2.14,45.37,21.25,0,0,3.16-2.83,2.82-6.67,0,0-5.65-14.59-43.07-21.14h0Z" fill="#fff"></path>
    <path d="M343.58,460.92l-.31-.52c-11.26-18.66-44.64-20.99-44.97-21.01l-.53-.03,.07-.53c.4-3.15,2.48-5.81,5.43-6.96l.13-.05,.14,.02c37.27,6.52,43.22,20.85,43.45,21.45l.03,.14c.36,4.04-2.85,6.96-2.98,7.09l-.45,.4h-.01Zm-44.67-22.48c4.39,.39,33.88,3.61,44.88,20.9,.8-.89,2.44-3.07,2.24-5.74-.46-1.02-7.24-14.54-42.53-20.75-2.38,.98-4.1,3.08-4.59,5.59Z" fill="#002346"></path>
  </g>
  <g>
    <path d="M298.33,438.89s-7.78,11,22.75,16.16c3.11,.75,6.06,2.05,8.71,3.85,0,0,8.25,6,13.91,1.24,0,0-4.75-9.77-21.26-15.85-7.76-2.85-15.87-4.67-24.11-5.4h0Z" fill="#e6e7e8"></path>
    <path d="M338.48,462.49c-4.53,0-8.74-3.01-8.99-3.19-2.59-1.76-5.47-3.03-8.53-3.77-13.5-2.28-21.42-5.99-23.5-11.01-1.36-3.28,.39-5.82,.46-5.93l.17-.23,.29,.03c8.28,.74,16.43,2.56,24.24,5.43,16.51,6.08,21.34,15.69,21.54,16.1l.17,.35-.3,.25c-1.73,1.45-3.66,1.97-5.54,1.97h-.01Zm-39.89-23.08c-.35,.64-1.16,2.48-.2,4.75,1.35,3.21,6.39,7.62,22.77,10.39,3.21,.77,6.2,2.09,8.91,3.93,.09,.07,7.7,5.5,12.99,1.52-1.03-1.78-6.43-9.97-20.79-15.25-7.62-2.8-15.59-4.6-23.67-5.34h0Z" fill="#002346"></path>
  </g>
  <g>
    <path d="M318.93,425.7c-.75,1-.9,2.66,2.16,5.17l11.48,3.29,2.77-3.86v-1.82s-4.73-2.37-13.69-3.79c-1.02-.19-2.07,.2-2.72,1.01h0Z" fill="#8A2BE2"></path>
    <path d="M332.77,434.74l-12-3.48c-3.39-2.79-3.09-4.72-2.24-5.86h0c.77-.97,2-1.43,3.2-1.2,8.92,1.41,13.62,3.74,13.82,3.83l.28,.14v2.29l-3.07,4.28h0Zm-11.44-4.32l11.04,3.16,2.47-3.44v-1.34c-1.13-.51-5.69-2.41-13.27-3.61-.86-.16-1.71,.15-2.25,.82-.84,1.13-.17,2.61,2,4.41h0Z" fill="#002346"></path>
  </g>
  <g>
    <path d="M335.34,428.48v12.79l6.62,5,6.39-11.53s-7.21-4.43-13.01-6.26Z" fill="#f2b3c1"></path>
    <path d="M342.12,447.02l-7.28-5.5v-13.72l.65,.21c5.79,1.83,13.05,6.27,13.12,6.31l.41,.25-6.9,12.45Zm-6.28-6l5.96,4.5,5.88-10.6c-1.53-.91-7.08-4.12-11.84-5.75v11.85Z" fill="#002346"></path>
  </g>
  <g>
    <path d="M506.93,327.16s1.64-4.07,7.73-2.4c1.52,.44,2.97,1.11,4.28,2,3.08,2,8.67,6.4,7.06,11l-10-.81-9.07-9.79Z" fill="#e6e65c"></path>
    <path d="M526.34,338.29l-10.58-.86-9.42-10.17,.12-.29s1.88-4.46,8.33-2.7c1.58,.46,3.07,1.15,4.43,2.07,3.44,2.23,8.96,6.71,7.25,11.58l-.13,.36h0Zm-10.11-1.81l9.41,.76c1.1-4.26-4.47-8.43-6.97-10.05-1.28-.86-2.67-1.51-4.15-1.94-4.67-1.28-6.5,1.02-6.99,1.84l8.7,9.39h0Z" fill="#002346"></path>
  </g>
  <path d="M510.14,325.08c-.2,0-.37-.11-.46-.29-.11-.25,0-.55,.26-.66h0l19.26-8.53c.25-.11,.55,0,.66,.25s0,.55-.26,.66h0l-19.26,8.49c-.06,.04-.13,.07-.2,.08h0Z" fill="#002346"></path>
  <g>
    <path d="M396.17,338.8s-2.07,3.89-.46,6c2.39-.62,4.59-1.8,6.44-3.43-2.06-.68-4.06-1.54-5.98-2.57Z" fill="#e6e65c"></path>
    <path d="M395.51,345.37l-.2-.26c-1.78-2.34,.33-6.37,.42-6.54l.24-.44,.44,.24c1.89,1.01,3.87,1.86,5.9,2.54l.83,.27-.65,.58c-1.9,1.68-4.19,2.9-6.65,3.54l-.32,.08h0Zm.88-5.89c-.43,.97-1.28,3.27-.47,4.74,1.89-.54,3.67-1.45,5.22-2.67-1.63-.58-3.22-1.27-4.75-2.07h0Z" fill="#002346"></path>
  </g>
  <path d="M450.07,266.24c-.24,0-.44-.17-.49-.4-.15-.75-3.74-18.39,7.4-25.4,.23-.15,.54-.07,.69,.16s.07,.54-.16,.69c-10.54,6.63-7,24.17-6.95,24.34,.06,.27-.11,.54-.38,.6h-.11Z" fill="#002346"></path>
  <g>
    <path d="M503.77,492.76h132.93c6.85,0,12.41-5.56,12.41-12.41v-132.44h15.71v134.36c0,15-12.15,27.16-27.15,27.17h-144.02l10.12-16.68h0Z" fill="#e1e1e2"></path>
    <path d="M637.67,509.94h-144.91l10.73-17.68h133.21c6.57,0,11.91-5.34,11.91-11.91v-132.94h16.71v134.86c0,7.39-2.87,14.33-8.09,19.56-5.22,5.23-12.17,8.11-19.56,8.11Zm-143.13-1h143.11c7.14,0,13.83-2.78,18.87-7.82,5.03-5.04,7.8-11.73,7.8-18.85v-133.86h-14.71v131.94c0,7.12-5.79,12.91-12.91,12.91h-132.65l-9.51,15.68h0Z" fill="#002346"></path>
  </g>
  <g>
    <polygon points="640.18 353.14 670.42 316.06 706.9 316.06 706.9 353.14 640.18 353.14" fill="#fff"></polygon>
    <path d="M707.4,353.64h-68.27l31.05-38.08h37.22v38.08Zm-66.17-1h65.17v-36.08h-35.74l-29.42,36.08h-.01Z" fill="#002346"></path>
  </g>
  <g>
    <rect x="645.82" y="310.46" width="38.1" height="5.59" fill="#fff"></rect>
    <path d="M684.42,316.55h-39.1v-6.59h39.1v6.59Zm-38.1-1h37.1v-4.59h-37.1v4.59Z" fill="#002346"></path>
  </g>
  <g>
    <polygon points="685.39 311.93 639.13 311.93 656.8 285.93 700.99 285.93 685.39 311.93" fill="#e6e65c"></polygon>
    <path d="M685.67,312.43h-47.49l18.35-27h45.34l-16.2,27Zm-45.6-1h45.03l15-25h-43.04l-16.99,25Z" fill="#002346"></path>
  </g>
  <g>
    <polygon points="685.39 311.93 690.7 311.93 705.97 285.93 700.99 285.93 685.39 311.93" fill="#fff"></polygon>
    <path d="M690.99,312.43h-6.48l16.2-27h6.14l-15.86,27h0Zm-4.71-1h4.14l14.68-25h-3.82l-15,25Z" fill="#002346"></path>
  </g>
  <polygon points="690.02 292.32 681.66 307.52 664.02 307.52 672.84 292.32 690.02 292.32" fill="#fff"></polygon>
  <polygon points="656.34 292.32 666.74 292.32 664.87 295.31 653.96 295.31 656.34 292.32" fill="#fff"></polygon>
  <polygon points="652.79 298.43 663.19 298.43 661.33 301.42 650.42 301.42 652.79 298.43" fill="#fff"></polygon>
  <polygon points="649.95 304.44 660.35 304.44 658.48 307.44 647.57 307.44 649.95 304.44" fill="#fff"></polygon>
  <g>
    <rect x="649.11" y="365.48" width="15.72" height="14.57" fill="#fff"></rect>
    <path d="M665.33,380.55h-16.72v-15.57h16.72v15.57Zm-15.72-1h14.72v-13.57h-14.72v13.57Z" fill="#002346"></path>
  </g>
  <g>
    <rect x="643.06" y="419.37" width="25.8" height="33.84" fill="#fff"></rect>
    <path d="M669.36,453.71h-26.8v-34.84h26.8v34.84Zm-25.8-1h24.8v-32.84h-24.8v32.84Z" fill="#002346"></path>
  </g>
  <g>
    <path d="M763.18,410.22c0,17.92-14.54,32.45-32.46,32.45h-61.86v-11.92h58.81c12.41,0,22.47-10.06,22.47-22.47V62c0-6.08-4.92-11-11-11H453.12c-4,0-7.24-3.23-7.25-7.23h0c0-4.01,3.23-7.25,7.23-7.26h299.12c6.08,0,11,4.92,11,11h0l-.04,362.71Z" fill="#e1e1e2"></path>
    <path d="M730.72,443.17h-62.36v-12.92h59.31c12.11,0,21.97-9.86,21.97-21.97V62c0-5.79-4.71-10.5-10.5-10.5H453.11c-2.06,0-4-.8-5.46-2.26s-2.27-3.4-2.27-5.47,.8-4.02,2.26-5.49,3.4-2.27,5.47-2.27h299.12c6.34,0,11.5,5.16,11.5,11.5l-.04,362.71c0,18.17-14.79,32.95-32.96,32.95h-.01Zm-61.36-1h61.36c17.62,0,31.96-14.33,31.96-31.95l.04-362.71c0-5.79-4.71-10.5-10.5-10.5H453.12c-1.82,0-3.51,.71-4.78,1.98s-1.97,2.97-1.97,4.77,.71,3.5,1.98,4.77c1.27,1.27,2.96,1.97,4.76,1.97h286.03c6.34,0,11.5,5.16,11.5,11.5V408.28c0,12.67-10.3,22.97-22.97,22.97h-58.31v10.92h0Z" fill="#002346"></path>
  </g>
  <path d="M600.29,544.91c-.59,0-1.16-.24-1.57-.67-22.15-22.63-9.48-184.27-8.93-191.14,.02-.28,.26-.48,.54-.46h0c.28,.02,.48,.26,.46,.54h0c-.14,1.68-13.19,168.06,8.64,190.37,.31,.32,.78,.44,1.21,.31,.44-.12,.78-.48,.87-.93,1.75-8,7.33-38.77,5.83-95.93h0s-3.55-71-4.66-93.84c-.01-.27,.2-.5,.47-.52,.26-.03,.5,.16,.53,.43v.05c1.11,22.88,4.66,93.88,4.66,93.88,1.5,57.28-4.1,88.1-5.85,96.18-.18,.81-.78,1.45-1.57,1.68-.21,.05-.42,.06-.63,.05h0Z" fill="#e6e65c"></path>
  <path d="M604.66,567c-1.14,0-2.17-.66-2.63-1.7-12.75-28.6-5.66-204.66-5.36-212.14,0-.28,.22-.5,.5-.5s.5,.22,.5,.5c-.07,1.83-7.38,183.3,5.28,211.69,.3,.74,1.05,1.21,1.85,1.15,.8-.04,1.49-.59,1.71-1.37,3.34-11.42,11.2-45.12,12.16-111.38l-1.83-100.06c0-.28,.21-.5,.49-.51h0c.25-.03,.48,.15,.51,.41v.08l1.83,100.08c-1,66.39-8.85,100.2-12.2,111.66-.34,1.17-1.38,2.01-2.6,2.09h-.21Z" fill="#e6e65c"></path>
  <path d="M620.51,546.07h-.34c-2.23-.11-4.27-1.31-5.43-3.22-8.82-14.41-9.53-54.09-9.55-55.77-7.45-75.33,7.61-132.28,7.76-132.85,.07-.28,.35-.44,.63-.37s.44,.35,.37,.63c-.16,.57-15.17,57.35-7.74,132.53,0,.45,.74,41.13,9.41,55.31,.99,1.63,2.73,2.66,4.63,2.75,1.86,.11,3.64-.73,4.74-2.23,4.4-5.87,9.8-20.38,10.49-56.17,.12-6.25-.09-12.51-.62-18.74-2-24.11-7.42-83.54-13.46-114.7-.05-.27,.13-.53,.4-.58s.52,.12,.58,.38v.02c6,31.2,11.44,90.67,13.47,114.8,.54,6.26,.75,12.55,.63,18.84-.69,36.06-6.2,50.77-10.69,56.75-1.24,1.67-3.2,2.64-5.28,2.62h0Z" fill="#e6e65c"></path>
  <path d="M631,542.68c-1.76-.08-3.44-.77-4.75-1.95-6-4.85-13.18-19.94-13.18-64.27l-.14-123.32c0-.28,.22-.5,.5-.5h0c.28,0,.5,.22,.5,.5l.14,123.32c0,46.1,8,59.53,12.74,63.44,2.58,2.11,4.51,1.76,4.59,1.75,36-7.28,4.46-186.61,4.14-188.42-.05-.27,.13-.53,.4-.58,.27-.04,.52,.13,.58,.4,1.33,7.43,32.06,182.11-4.92,189.58-.2,.03-.4,.05-.6,.05h0Z" fill="#e6e65c"></path>
  <rect x="765.82" y="356.19" width="13.54" height="1.71" fill="#002346"></rect>
  <polygon points="766.77 357.9 767.41 367.44 777.54 367.44 778.29 357.9 766.77 357.9" fill="#002346"></polygon>
  <g>
    <rect x="742.26" y="356.19" width="13.54" height="1.71" fill="#8A2BE2"></rect>
    <path d="M756.3,358.4h-14.54v-2.71h14.54v2.71Zm-13.54-1h12.54v-.71h-12.54v.71Z" fill="#002346"></path>
  </g>
  <g>
    <polygon points="743.22 357.9 743.86 367.44 753.99 367.44 754.73 357.9 743.22 357.9" fill="#8A2BE2"></polygon>
    <path d="M754.45,367.94h-11.06l-.71-10.54h12.59l-.82,10.54Zm-10.12-1h9.2l.66-8.54h-10.44l.57,8.54h.01Z" fill="#002346"></path>
  </g>
  <g>
    <path d="M726.46,351.08v-3.52h-5.28v3.52h0c-1.6,0-2.9,1.3-2.9,2.9h0v13.46h11.08v-13.44c0-1.6-1.3-2.9-2.9-2.9h0v-.02h0Z" fill="#e1e1e2"></path>
    <path d="M729.86,367.94h-12.08v-13.96c0-1.71,1.26-3.12,2.9-3.36v-3.56h6.28v3.58c1.64,.24,2.9,1.66,2.9,3.36v13.94h0Zm-11.08-1h10.08v-12.94c0-1.32-1.08-2.4-2.4-2.4h-.5v-3.54h-4.28v3.52h-.5c-1.32,0-2.4,1.08-2.4,2.4v12.96h0Z" fill="#002346"></path>
  </g>
  <g>
    <rect x="719.66" y="343.72" width="8.19" height="3.84" rx=".51" ry=".51" fill="#e6e65c"></rect>
    <path d="M727.34,348.06h-7.17c-.56,0-1.01-.45-1.01-1.01v-2.82c0-.56,.45-1.01,1.01-1.01h7.17c.56,0,1.01,.45,1.01,1.01v2.82c0,.56-.45,1.01-1.01,1.01Zm-7.17-3.84h0v2.82h7.18v-2.82s-7.17,0-7.17,0h-.01Z" fill="#002346"></path>
  </g>
  <path d="M721,362.92c-.14,0-.25-.11-.25-.25v-8.46c0-.14,.11-.25,.25-.25s.25,.11,.25,.25v8.46c0,.14-.11,.25-.25,.25Z" fill="#002346"></path>
  <g>
    <rect x="480.64" y="51.36" width="8.93" height="15.39" fill="#002346"></rect>
    <path d="M490.07,67.25h-9.93v-16.39h9.93v16.39Zm-8.93-1h7.93v-14.39h-7.93v14.39Z" fill="#002346"></path>
  </g>
  <g>
    <path d="M435.7,117.69s4.3-53.41,49.4-54.64c0,0,44.78-4.61,51.25,54.64h-100.65Z" fill="#e6e65c"></path>
    <path d="M536.91,118.19h-101.75l.04-.54c.04-.54,4.86-53.87,49.88-55.1,.07,0,11.44-1.09,23.44,5.16,11.06,5.76,24.95,19.1,28.32,49.93l.06,.55h.01Zm-100.65-1h99.54c-3.42-29.99-16.95-42.98-27.72-48.6-11.73-6.11-22.81-5.06-22.92-5.05-41.74,1.14-48.27,48.05-48.9,53.64h0Z" fill="#002346"></path>
  </g>
  <g>
    <path d="M467.43,291.65v4.43c.01,1.8-.83,3.5-2.26,4.58-2.83,2.08-6.17,3.37-9.67,3.71,0,0,17.18,22.23,45.68-4.12,0,0-10.67-1.42-11.65-8.6l-1.53-10.42-20.57,10.42h0Z" fill="#f2b3c1"></path>
    <path d="M474.39,313.63c-.71,0-1.42-.03-2.12-.09-10.9-.91-16.92-8.55-17.17-8.87l-.55-.71,.9-.09c3.41-.33,6.67-1.58,9.42-3.61,1.3-.98,2.07-2.54,2.06-4.17v-4.74l21.46-10.87,1.63,11.11c.92,6.72,11.12,8.16,11.22,8.18l1.05,.14-.78,.72c-9.35,8.65-18.47,13.02-27.13,13.02v-.02Zm-17.89-8.88c1.76,1.89,7.31,7.09,15.88,7.8,8.76,.73,18.08-3.31,27.72-11.99-2.77-.57-10.21-2.65-11.06-8.85l-1.43-9.73-19.68,9.97v4.12c.01,1.94-.91,3.8-2.46,4.98-2.65,1.95-5.73,3.22-8.98,3.69h0Z" fill="#002346"></path>
  </g>
  <g>
    <path d="M453.82,284c-1.31,2.15-1.76,4.71-1.25,7.17,0,0-5.61,3.77-.32,11.56,4.48-2.18,9.35-3.41,14.33-3.62,.55-.9,.85-1.94,.85-3v-2.83c-5.67-.96-10.65-4.35-13.61-9.28h0Z" fill="#002346"></path>
    <path d="M452.08,303.37l-.24-.36c-1.94-2.86-2.69-5.54-2.22-7.96,.44-2.26,1.82-3.61,2.41-4.1-.44-2.5,.05-5.05,1.37-7.22l.43-.71,.43,.71c2.89,4.81,7.73,8.11,13.26,9.04l.42,.07v3.25c0,1.15-.33,2.28-.92,3.26l-.14,.23h-.27c-4.94,.22-9.69,1.42-14.13,3.58l-.39,.19v.02Zm1.76-18.39c-.93,1.88-1.21,4.01-.79,6.09l.07,.33-.28,.19c-.21,.14-4.96,3.49-.42,10.51,4.37-2.07,9.03-3.23,13.86-3.47,.42-.77,.64-1.63,.65-2.52v-2.41c-5.37-1.02-10.08-4.16-13.08-8.72h0Z" fill="#0d2445"></path>
  </g>
  <g>
    <path d="M452.2,267.13l6.3-16.01c3.89-9.89,15.07-14.76,24.96-10.87h0c9.89,3.89,14.76,15.07,10.87,24.96l-6.3,16.01c-3.89,9.89-15.07,14.76-24.96,10.87h0c-9.89-3.89-14.76-15.07-10.87-24.96Z" fill="#f2b3c1"></path>
    <path d="M470.11,293.94c-2.44,0-4.89-.46-7.23-1.38-4.91-1.93-8.77-5.66-10.88-10.49-2.11-4.84-2.2-10.2-.27-15.11l6.3-16.01c1.93-4.91,5.66-8.77,10.49-10.88,4.84-2.11,10.21-2.2,15.11-.27,4.91,1.93,8.77,5.66,10.88,10.49,2.11,4.84,2.2,10.2,.27,15.11l-6.3,16.01c-1.93,4.91-5.66,8.77-10.49,10.88-2.53,1.1-5.2,1.65-7.88,1.65h0Zm6.29-54.53c-2.54,0-5.08,.52-7.48,1.57-4.59,2-8.13,5.67-9.96,10.33l-6.3,16.01c-1.83,4.66-1.74,9.76,.26,14.35s5.67,8.13,10.33,9.96c4.66,1.83,9.76,1.74,14.35-.26s8.13-5.67,9.96-10.33l6.3-16.01c1.83-4.66,1.74-9.76-.26-14.35-2-4.59-5.67-8.13-10.33-9.96-2.22-.87-4.55-1.31-6.87-1.31h0Z" fill="#002346"></path>
  </g>
  <g>
    <path d="M454.14,262.19s-4.15-7.83,1.06-18.14c1.93-3.99,5.37-7.05,9.57-8.49,2.8-1.06,5.93-.76,8.48,.8,0,0,12.29-4.81,18.76,6.24,0,0,14.55-.85,14.27,14.44,0,0-.43,15.67,6.23,24.19,0,0,11.3,13,3.52,21.26,0,0-5.38-.85-8.19-3.42,0,0-1.91-1.88-13.15-.93,0,0-4.53-2.18-5.16-6.49l-1.53-10.42,3.41-8.68s-14.47-11.55-21.6-22.27c.01,3.55,1.71,6.89,4.57,9,0,0-8.88-3-5.64-11.43,0,0-8.08-3.51-14.6,14.34h0Z" fill="#002346"></path>
    <path d="M516.21,303.03l-.26-.04c-.23-.04-5.56-.9-8.45-3.54-.02-.02-2.14-1.7-12.77-.8h-.14l-.12-.05c-.19-.09-4.78-2.35-5.44-6.87l-1.55-10.55,3.32-8.46c-1.97-1.61-13.56-11.23-20.33-20.59,.48,2.68,1.98,5.13,4.2,6.76l2.59,1.9-3.04-1.03c-.17-.06-4.27-1.48-5.97-5.11-.9-1.93-.96-4.1-.16-6.47-.71-.15-2.1-.26-3.87,.54-2.54,1.16-6.26,4.47-9.61,13.64l-.39,1.06-.53-.99c-.17-.33-4.21-8.18,1.05-18.6,1.97-4.08,5.56-7.27,9.85-8.74,2.83-1.07,6.07-.8,8.7,.72,1.76-.59,12.84-3.84,18.98,6.28,1.35-.03,6.71,.15,10.56,3.85,2.7,2.59,4.02,6.33,3.94,11.11,0,.16-.35,15.6,6.12,23.87,.1,.11,11.49,13.42,3.49,21.91l-.18,.19h0Zm-15.79-5.64c6.18,0,7.6,1.18,7.77,1.34,2.31,2.11,6.57,3.03,7.66,3.24,7.02-7.85-3.61-20.27-3.72-20.39-6.71-8.58-6.37-23.88-6.35-24.53,.08-4.48-1.14-7.97-3.62-10.36-4.01-3.86-10.05-3.57-10.12-3.56l-.3,.02-.16-.26c-6.17-10.54-17.66-6.22-18.15-6.03l-.23,.09-.21-.13c-2.4-1.47-5.41-1.76-8.04-.76-4.06,1.39-7.44,4.39-9.3,8.24-3.92,7.75-2.42,14.09-1.53,16.57,2.7-6.93,5.96-11.31,9.69-13.02,2.33-1.07,4.16-.72,4.85-.52l1.13-.78-.58,1.52c-.88,2.3-.9,4.38-.06,6.19,.57,1.23,1.48,2.18,2.38,2.89-1.42-1.97-2.22-4.36-2.23-6.83v-1.66l.92,1.39c7.01,10.53,21.35,22.04,21.5,22.16l.29,.23-3.5,8.9,1.51,10.29c.53,3.62,4.08,5.68,4.77,6.05,2.22-.18,4.08-.26,5.63-.26v-.03Z" fill="#0d2445"></path>
  </g>
  <g>
    <ellipse cx="491.44" cy="277.65" rx="7.71" ry="5.2" transform="translate(-28.27 497.88) rotate(-52.43)" fill="#f2b3c1"></ellipse>
    <path d="M489.14,285.02c-1.01,0-1.94-.28-2.71-.87-1.24-.95-1.85-2.54-1.73-4.46,.12-1.85,.9-3.81,2.22-5.52,2.76-3.59,7.04-4.95,9.52-3.03,1.24,.95,1.85,2.54,1.73,4.46-.12,1.85-.9,3.81-2.22,5.52-1.91,2.48-4.55,3.9-6.82,3.9h.01Zm4.57-13.77c-1.94,0-4.27,1.29-5.99,3.53-1.2,1.55-1.91,3.32-2.01,4.98-.1,1.58,.38,2.86,1.34,3.6,2.05,1.58,5.7,.3,8.12-2.85,1.2-1.55,1.91-3.32,2.01-4.98,.1-1.58-.38-2.86-1.34-3.6-.6-.46-1.33-.68-2.13-.68Z" fill="#002346"></path>
  </g>
  <g>
    <path d="M402.15,341.37s-15.23-5.26-12.42-10.32c0,0-6.64-4.82-2.29-8.69-1.08-.73-1.78-1.9-1.9-3.2-.13-1.69,1.11-3.19,2.8-3.36,2.4-.28,7,.55,15.08,6.07-.24-2.08,.73-4.11,2.5-5.23,.61-.38,1.42-.19,1.8,.42,.13,.21,.2,.44,.2,.69v6.61s3.77,2.36,4,5.47c.08,0-3.8,7.75-9.77,11.54h0Z" fill="#f2b3c1"></path>
    <path d="M402.21,341.92l-.23-.08c-.46-.16-11.19-3.91-12.87-8.31-.31-.81-.31-1.59-.01-2.34-.94-.76-3.51-3.06-3.64-5.68-.06-1.14,.35-2.18,1.21-3.11-.94-.81-1.52-1.95-1.64-3.2-.15-1.95,1.3-3.7,3.25-3.9,2.4-.28,6.88,.49,14.6,5.61,.11-1.89,1.13-3.67,2.76-4.7,.85-.53,1.97-.27,2.5,.58,.18,.29,.27,.61,.27,.95v6.34c.87,.6,3.79,2.81,4,5.7h-.02c-.15,1.14-4.57,8.56-9.98,12l-.2,.13h0Zm-13-25.66c-.3,0-.57,.02-.82,.05-1.42,.15-2.47,1.41-2.36,2.82,.1,1.15,.72,2.18,1.68,2.82l.54,.36-.48,.43c-.93,.83-1.36,1.72-1.31,2.73,.13,2.66,3.52,5.16,3.56,5.18l.36,.26-.21,.39c-.33,.6-.37,1.22-.12,1.88,1.39,3.64,10.48,7.07,12.04,7.64,5.2-3.41,8.87-10.03,9.33-11.05-.28-2.77-3.72-4.96-3.76-4.98l-.23-.15v-6.89c0-.15-.04-.29-.12-.42-.24-.38-.74-.5-1.12-.26-1.59,1.01-2.48,2.87-2.27,4.75l.13,1.09-.91-.62c-7.12-4.86-11.42-6.03-13.92-6.03h0Z" fill="#002346"></path>
  </g>
  <path d="M395.71,330.33h-.08c-.26-.03-.45-.27-.42-.54v-.03c1.38-8.3,8.11-8.38,8.2-8.38h0c.28,0,.5,.22,.5,.5s-.22,.5-.5,.5c-.24,0-6,.1-7.22,7.54-.04,.24-.25,.41-.49,.41h0Z" fill="#002346"></path>
  <g>
    <path d="M511.23,327.79c-3.52-1.6-7.68-.13-9.41,3.33-1.08,2.42-1.79,5-2.11,7.63,0,0-1.22,9.93,2.53,9.75,0,0,1.87,.93,2.25-7.13,0,0,3.09-1.62,4.12,2.39,.08,.33,.15,.66,.19,1,.75,5.25,.77,7.5,5.08,5.06,0,0,5.88,.83,6.54-6.86,.07-.88,.8-1.57,1.69-1.58h0c.95,0,1.72,.78,1.71,1.73v.05c-.06,1,0,2.01,.18,3,.14,.73,.85,1.21,1.59,1.06,.31-.06,.59-.23,.79-.48,.62-.84,1.1-2.38,.8-5.21-.34-3.05-1.98-5.81-4.51-7.56-3.61-2.42-7.44-4.49-11.44-6.18h0Z" fill="#f2b3c1"></path>
    <path d="M511.2,351.31c-.32,0-.61-.07-.87-.19-1.23-.61-1.48-2.41-1.9-5.38l-.13-.9c-.04-.32-.1-.64-.18-.95-.29-1.14-.78-1.88-1.45-2.18-.64-.29-1.34-.12-1.7,0-.22,4.11-.88,6.52-1.96,7.15-.32,.18-.63,.2-.85,.14-.68,.01-1.25-.25-1.72-.75-2.1-2.26-1.27-9.26-1.23-9.56,.33-2.69,1.05-5.3,2.15-7.77,1.87-3.73,6.29-5.29,10.07-3.58,4.02,1.7,7.89,3.79,11.52,6.22,2.65,1.84,4.37,4.72,4.73,7.92,.27,2.52-.03,4.4-.9,5.56-.28,.36-.67,.59-1.1,.68-.48,.09-.98,0-1.39-.28-.41-.28-.69-.69-.79-1.18-.19-1.04-.25-2.09-.19-3.13,0-.35-.12-.66-.35-.89s-.54-.36-.86-.36c-.62,0-1.14,.49-1.19,1.12-.24,2.76-1.15,4.8-2.72,6.04-1.7,1.35-3.63,1.33-4.21,1.29-1.19,.66-2.08,.97-2.79,.97h0Zm-5.32-10.75c.38,0,.78,.06,1.19,.24,.97,.43,1.65,1.39,2.02,2.84,.09,.35,.16,.71,.2,1.06l.13,.89c.34,2.47,.59,4.25,1.35,4.62,.5,.25,1.43-.02,2.86-.83l.15-.08,.17,.02s1.99,.25,3.64-1.07c1.34-1.07,2.12-2.87,2.33-5.34,.09-1.14,1.03-2.02,2.18-2.04,.6,0,1.16,.24,1.58,.66s.64,.98,.64,1.57c-.06,1.04,0,2.01,.17,2.96,.09,.45,.54,.76,1,.66,.2-.04,.37-.15,.5-.3,.48-.65,.99-2.02,.69-4.85-.32-2.91-1.89-5.53-4.3-7.2-3.57-2.39-7.39-4.46-11.35-6.13h-.01c-3.29-1.5-7.14-.14-8.76,3.09-1.05,2.36-1.75,4.88-2.06,7.47-.23,1.9-.51,7.16,.97,8.76,.29,.32,.65,.46,1.04,.43h.13l.1,.04s.04-.02,.13-.1c.34-.29,1.17-1.51,1.41-6.6v-.29l.27-.13s.74-.38,1.63-.38v.03Z" fill="#002346"></path>
  </g>
  <path d="M513.88,350.31h0c-.28-.02-.48-.26-.46-.54h0c.12-3.27-.29-6.54-1.22-9.68-.07-.26,.08-.54,.34-.62,.27-.08,.54,.07,.62,.34,.97,3.24,1.39,6.62,1.25,10,0,.27-.21,.5-.48,.5h-.05Z" fill="#002346"></path>
  <g>
    <path d="M336,430.55c-2.2-.88-4.63-1-6.9-.33-.83,.27-1.69,.46-2.56,.57-3.5,.38-7.05,.12-10.46-.78,0,0-8.36-3.22-12.66,2.32,0,0,33.69,4.63,43.07,21.14,1.79-2.09,2.31-4.99,1.36-7.58l-11.19-6.55s4.82-6.16-.66-8.79h0Z" fill="#e6e65c"></path>
    <path d="M346.41,454.34l-.35-.62c-9.15-16.11-42.37-20.85-42.7-20.89l-.86-.12,.53-.68c4.47-5.77,13.15-2.51,13.23-2.48,3.31,.87,6.77,1.13,10.23,.75,.83-.1,1.66-.29,2.46-.55,2.39-.7,4.95-.58,7.24,.34h.03c1.53,.75,2.46,1.81,2.78,3.18,.55,2.35-.92,4.9-1.61,5.92l10.87,6.36,.06,.17c1.01,2.75,.46,5.85-1.45,8.08l-.46,.54h0Zm-42.01-22.37c5.48,.87,33.09,5.9,42.15,20.61,1.28-1.84,1.62-4.21,.89-6.35l-11.53-6.75,.35-.45s2.34-3.04,1.76-5.55c-.25-1.05-1-1.88-2.23-2.48-2.08-.83-4.41-.94-6.56-.31-.85,.28-1.74,.48-2.64,.59-3.58,.39-7.16,.13-10.65-.79-.12-.05-7.4-2.76-11.56,1.48h.02Z" fill="#002346"></path>
  </g>
  <g>
    <path d="M342.33,440.72s-7.78,11,22.75,16.16c3.11,.75,6.06,2.05,8.71,3.85,0,0,8.25,6,13.91,1.24,0,0-4.75-9.77-21.26-15.85-7.76-2.85-15.87-4.67-24.11-5.4h0Z" fill="#e6e7e8"></path>
    <path d="M382.48,464.32c-4.53,0-8.74-3.01-8.99-3.19-2.59-1.76-5.47-3.03-8.53-3.77-13.5-2.28-21.42-5.99-23.51-11.01-1.36-3.28,.39-5.82,.46-5.93l.17-.23,.29,.03c8.28,.74,16.44,2.56,24.24,5.43,16.51,6.08,21.34,15.69,21.54,16.1l.17,.35-.3,.25c-1.73,1.45-3.66,1.97-5.54,1.97h0Zm-39.89-23.08c-.35,.64-1.16,2.48-.2,4.75,1.35,3.21,6.39,7.62,22.77,10.39,3.21,.77,6.2,2.09,8.91,3.93,.09,.06,7.7,5.49,12.99,1.53-1.03-1.78-6.43-9.97-20.79-15.25-7.62-2.8-15.59-4.6-23.67-5.34h0Z" fill="#002346"></path>
  </g>
  <g>
    <path d="M380,432.38s-1.76-2-6.15-.6c-1.49,.51-3.03,.82-4.6,.94-3.08,.23-6.18-.07-9.17-.88,0,0-8.36-3.22-12.66,2.32,0,0,33.69,4.63,43.07,21.14,1.79-2.09,2.31-4.99,1.36-7.58l-11.19-6.55s4.82-6.17-.66-8.79h0Z" fill="#e6e65c"></path>
    <path d="M390.41,456.17l-.35-.62c-9.15-16.11-42.37-20.85-42.7-20.89l-.86-.12,.53-.68c4.47-5.77,13.15-2.51,13.23-2.48,2.89,.78,5.92,1.07,8.95,.85,1.52-.11,3.03-.42,4.48-.92,4.19-1.34,6.19,.26,6.61,.66,1.48,.73,2.39,1.78,2.7,3.11,.55,2.35-.92,4.9-1.61,5.93l10.87,6.36,.06,.17c1.01,2.75,.46,5.85-1.45,8.08l-.46,.54h0Zm-42.01-22.36c5.48,.87,33.09,5.9,42.15,20.61,1.28-1.84,1.62-4.21,.89-6.35l-11.53-6.75,.35-.45s2.35-3.05,1.76-5.55c-.25-1.05-1-1.89-2.24-2.48l-.16-.12c-.08-.09-1.66-1.72-5.62-.46-1.52,.52-3.11,.84-4.72,.96-3.15,.23-6.29-.07-9.34-.9-.12-.04-7.4-2.76-11.55,1.48h0Z" fill="#002346"></path>
  </g>
  <g>
    <path d="M347.45,434.16c-2.78,1.08-4.75,3.6-5.12,6.56,0,0,33.84,2.14,45.37,21.25,0,0,3.16-2.83,2.82-6.67,0,0-5.65-14.59-43.07-21.14h0Z" fill="#fff"></path>
    <path d="M387.58,462.75l-.31-.52c-11.26-18.66-44.64-20.99-44.97-21.01l-.53-.03,.07-.53c.4-3.15,2.48-5.81,5.43-6.96l.13-.05,.14,.02c37.27,6.52,43.22,20.85,43.45,21.45l.03,.14c.36,4.04-2.85,6.96-2.98,7.09l-.45,.4h-.01Zm-44.67-22.48c4.39,.39,33.88,3.61,44.88,20.9,.8-.89,2.44-3.07,2.24-5.74-.46-1.02-7.24-14.54-42.53-20.75-2.38,.98-4.1,3.08-4.59,5.59Z" fill="#002346"></path>
  </g>
  <g>
    <path d="M512.55,478.07h13.82s7.14,.95,7.52-10.57v-95.92h-27.66c-3.6,0-6.51-2.91-6.52-6.51v-9.73h28.7c7.09,0,12.84,5.75,12.84,12.84h0v101.27c0,9.73-7.88,17.61-17.61,17.61h-16.41l5.32-8.99h0Z" fill="#e1e1e2"></path>
    <path d="M523.64,487.56h-17.29l5.91-9.99h14.11c.08,0,2.1,.24,3.92-1.32,1.92-1.64,2.96-4.59,3.1-8.77v-95.4h-27.16c-3.87,0-7.01-3.14-7.02-7.01v-10.23h29.2c7.36,0,13.34,5.98,13.34,13.34v101.27c0,9.99-8.12,18.11-18.11,18.11Zm-15.53-1h15.53c9.43,0,17.11-7.68,17.11-17.11v-101.27c0-6.8-5.54-12.34-12.34-12.34h-28.2v9.23c0,3.31,2.71,6.01,6.02,6.01h28.16v96.42c-.15,4.5-1.32,7.71-3.47,9.53-2.17,1.84-4.52,1.55-4.62,1.54h-13.47l-4.73,7.99h.01Z" fill="#002346"></path>
  </g>
  <g>
    <polygon points="665.03 372.53 670.42 367.44 790.68 367.44 790.68 373.79 671.88 373.79 665.03 379.44 665.03 372.53" fill="#fff"></polygon>
    <path d="M664.53,380.5v-8.19l5.69-5.38h120.96v7.35h-119.12l-7.53,6.21h0Zm1-7.74v5.63l6.17-5.09h118.48v-5.35h-119.56l-5.09,4.81h0Z" fill="#002346"></path>
  </g>
  <g>
    <path d="M439,232.81s18.59-28.51,32.43-27.3c0,0,3.63,.94-7.26,8.47,0,0-8.06,4.84-5.91,7.94,0,0,.94,1.74,5.65,0l3-1c.38-.16,.81,.02,.97,.4,.06,.15,.07,.31,.03,.47-.36,1.33-1.86,3.64-7.37,6.34-1.46,.7-2.78,1.67-3.88,2.86-2.08,2.28-5.2,6.11-5.49,8.9l-12.17-7.08h0Z" fill="#f2b3c1"></path>
    <path d="M451.59,240.71l-13.29-7.73,.29-.44c.77-1.17,18.89-28.74,32.89-27.52,.37,.09,.9,.39,1.01,1.05,.3,1.66-2.33,4.39-8.03,8.33-1.53,.92-5.54,3.75-6.01,5.97-.1,.49-.03,.9,.23,1.28,.03,.04,.93,1.34,5.07-.18l3.01-1c.59-.25,1.32,.05,1.59,.68,.1,.25,.12,.53,.05,.79-.42,1.54-2.08,3.94-7.63,6.66-1.41,.68-2.67,1.61-3.73,2.75-3.25,3.56-5.15,6.62-5.36,8.61l-.08,.77v-.02Zm-11.89-8.07l11.09,6.45c.66-2.71,3.29-6.04,5.49-8.44,1.15-1.24,2.51-2.24,4.03-2.97,5.49-2.69,6.81-4.93,7.1-6.02,.01-.05,0-.1-.01-.15-.05-.12-.2-.18-.31-.13l-3.03,1.01c-4.96,1.83-6.13-.02-6.25-.24-.39-.56-.52-1.25-.36-2.01,.67-3.09,6.21-6.45,6.45-6.59,7.3-5.05,7.66-6.87,7.59-7.31-.03-.18-.17-.24-.21-.25-12.42-1.08-29.17,23.08-31.58,26.65h0Z" fill="#002346"></path>
  </g>
  <g>
    <ellipse cx="486.02" cy="117.69" rx="50.33" ry="15.54" fill="#fff"></ellipse>
    <path d="M486.02,133.73c-28.5,0-50.83-7.05-50.83-16.04s22.33-16.04,50.83-16.04,50.83,7.05,50.83,16.04-22.33,16.04-50.83,16.04h0Zm0-31.08c-27.48,0-49.83,6.75-49.83,15.04s22.35,15.04,49.83,15.04,49.83-6.75,49.83-15.04-22.35-15.04-49.83-15.04h0Z" fill="#002346"></path>
  </g>
  <g>
    <ellipse cx="457.24" cy="118.3" rx="15.39" ry="4.16" fill="#e6e7e8"></ellipse>
    <path d="M457.24,122.96c-7.7,0-15.89-1.63-15.89-4.66s8.19-4.66,15.89-4.66,15.89,1.63,15.89,4.66-8.19,4.66-15.89,4.66Zm0-8.32c-9.23,0-14.89,2.13-14.89,3.66s5.66,3.66,14.89,3.66,14.89-2.13,14.89-3.66-5.66-3.66-14.89-3.66Z" fill="#002346"></path>
  </g>
  <g>
    <ellipse cx="488.02" cy="109.99" rx="15.39" ry="4.16" fill="#e6e7e8"></ellipse>
    <path d="M488.02,114.65c-7.7,0-15.89-1.63-15.89-4.66s8.19-4.66,15.89-4.66,15.89,1.63,15.89,4.66-8.19,4.66-15.89,4.66Zm0-8.32c-9.23,0-14.89,2.13-14.89,3.66s5.67,3.66,14.89,3.66,14.89-2.13,14.89-3.66-5.66-3.66-14.89-3.66Z" fill="#002346"></path>
  </g>
  <g>
    <ellipse cx="518.8" cy="118.3" rx="15.39" ry="4.16" fill="#e6e7e8"></ellipse>
    <path d="M518.8,122.96c-7.7,0-15.89-1.63-15.89-4.66s8.19-4.66,15.89-4.66,15.89,1.63,15.89,4.66-8.19,4.66-15.89,4.66Zm0-8.32c-9.23,0-14.89,2.13-14.89,3.66s5.66,3.66,14.89,3.66,14.89-2.13,14.89-3.66-5.67-3.66-14.89-3.66Z" fill="#002346"></path>
  </g>
  <g>
    <ellipse cx="488.02" cy="126.61" rx="15.39" ry="4.16" fill="#e6e7e8"></ellipse>
    <path d="M488.02,131.27c-7.7,0-15.89-1.63-15.89-4.66s8.19-4.66,15.89-4.66,15.89,1.63,15.89,4.66-8.19,4.66-15.89,4.66Zm0-8.32c-9.23,0-14.89,2.13-14.89,3.66s5.67,3.66,14.89,3.66,14.89-2.13,14.89-3.66-5.66-3.66-14.89-3.66Z" fill="#002346"></path>
  </g>
  <path d="M578.53,307.27c-.21,0-.39-.13-.46-.33l-4.51-12.24c-1.31-3.6-.17-7.63,2.84-10l.13-.1c.22-.16,.54-.11,.7,.11s.11,.54-.11,.7l-.1,.07c-2.67,2.11-3.68,5.69-2.52,8.88l4.5,12.23c.1,.25-.03,.54-.28,.64h-.01c-.06,.03-.12,.04-.18,.04h0Z" fill="#002346"></path>
  <path d="M591.88,308c-.22,0-.41-.15-.48-.36l-4.3-15.2c-.08-.28,.08-.56,.36-.64,.28-.08,.56,.08,.64,.36l4.31,15.21c.07,.27-.08,.54-.35,.62h-.18Z" fill="#002346"></path>
  <path d="M606.14,306.7c-.22,0-.41-.14-.48-.35l-4.3-13.12c-.09-.26,.06-.54,.32-.63s.53,.05,.62,.3v.02l4.3,13.12c.09,.26-.05,.53-.3,.62h-.02l-.15,.03h.01Z" fill="#002346"></path>
  <g>
    <polygon points="564.26 353.14 640.18 353.14 670.42 316.06 598.63 316.06 564.26 353.14" fill="#e6e65c"></polygon>
    <path d="M640.42,353.64h-77.3l35.3-38.08h73.06l-31.05,38.08h-.01Zm-75.01-1h74.54l29.42-36.08h-70.52l-33.44,36.08h0Z" fill="#002346"></path>
  </g>
  <g>
    <polygon points="581.54 343.67 601.63 321.28 656.8 321.28 638.8 343.67 581.54 343.67" fill="#fff"></polygon>
    <path d="M639.04,344.17h-58.62l20.99-23.39h56.44l-18.8,23.39h-.01Zm-56.38-1h55.9l17.2-21.39h-53.9l-19.19,21.39h-.01Z" fill="#002346"></path>
  </g>
  <polygon points="619.17 305.22 614.29 288.96 621.57 305.22 619.17 305.22" fill="#002346"></polygon>
  <g>
    <rect x="82.08" y="39.57" width="153.28" height="170.09" fill="#fff"></rect>
    <path d="M235.86,210.16H81.58V39.07H235.86V210.16Zm-153.28-1H234.86V40.07H82.58V209.16Z" fill="#002346"></path>
  </g>
  <g>
    <path d="M156,77.05s-24.83-14.41-37.37,3.47c0,0-8,11.21,3.47,35.5,0,0,1.91,3.83,.61,13.39-.77,5.4-1.13,10.84-1.08,16.29,.19,11.36,2.14,27.18,11,33.22,1.73,1.22,4.11,.95,5.52-.63,1.36-1.61,2.81-4.62,3.73-10.22,0,0,3.47-24.29,14.15-27.23,0,0,8.54-.8,14.14,28,0,0,1.57,12.33,6.56,12.54,.81,0,1.58-.31,2.16-.88,3.17-3,15.75-17,11.3-49.56,0,0-2.12-7.21,.94-17.62,0,0,6.75-13.26,5.31-25.16-1.23-8.94-8.69-15.71-17.71-16.06-7.87-.24-15.68,1.46-22.73,4.95h0Z" fill="#fff"></path>
    <path d="M176.74,181.88h0c-5.37-.23-6.99-12.46-7.05-12.98-5.39-27.73-13.52-27.57-13.6-27.56-10.15,2.8-13.66,26.56-13.69,26.8-.8,4.88-2.09,8.4-3.84,10.47-1.59,1.78-4.25,2.09-6.19,.72-8.9-6.07-11.01-21.63-11.21-33.62-.05-5.47,.32-10.97,1.08-16.37,1.26-9.24-.54-13.06-.56-13.1-11.47-24.28-3.76-35.54-3.43-36.01,12-17.1,35.19-5.16,37.79-3.74,7.04-3.44,14.89-5.12,22.73-4.89,9.28,.36,16.93,7.29,18.19,16.49,1.44,11.92-5.29,25.32-5.36,25.46-2.95,10.06-.93,17.18-.91,17.25,4.41,32.24-7.64,46.47-11.44,50.06-.66,.65-1.55,1.02-2.49,1.02h0Zm-20.69-41.53c1.29,0,9.31,1.15,14.61,28.39,.43,3.35,2.34,11.98,6.09,12.14h0c.66,0,1.3-.26,1.78-.74,3.72-3.52,15.49-17.44,11.16-49.14-.07-.23-2.11-7.4,.96-17.83,.1-.22,6.7-13.35,5.29-24.96-1.19-8.71-8.44-15.28-17.23-15.62-7.75-.23-15.53,1.45-22.49,4.9l-.24,.12-.23-.13c-.24-.14-24.58-13.97-36.71,3.32-.08,.11-7.67,11.31,3.51,35,.08,.15,1.96,4.07,.65,13.67-.76,5.35-1.12,10.81-1.08,16.22,.2,11.75,2.23,26.98,10.78,32.81,1.53,1.08,3.62,.85,4.87-.55,1.62-1.92,2.84-5.28,3.61-9.97,.14-.99,3.64-24.64,14.51-27.63h.16Z" fill="#002346"></path>
  </g>
  <rect x="183.79" y="120.59" width="30.96" height="1" fill="#002346"></rect>
  <rect x="102.34" y="120.59" width="30.96" height="1" fill="#002346"></rect>
  <polygon points="184.21 79.44 183.36 78.92 196.36 57.6 216.08 57.6 216.08 58.6 196.92 58.6 184.21 79.44" fill="#002346"></polygon>
  <polygon points="132.87 79.52 120.17 58.68 101 58.68 101 57.68 120.73 57.68 133.72 79 132.87 79.52" fill="#002346"></polygon>
  <polygon points="216.08 191.25 188.54 191.25 177.46 168.28 178.36 167.85 189.17 190.25 216.08 190.25 216.08 191.25" fill="#002346"></polygon>
  <polygon points="128.03 190.32 100.49 190.32 100.49 189.32 127.4 189.32 138.21 166.91 139.11 167.35 128.03 190.32" fill="#002346"></polygon>
  <g>
    <circle cx="220.62" cy="120.62" r="5.87" fill="#fff"></circle>
    <path d="M220.62,126.99c-3.51,0-6.37-2.86-6.37-6.37s2.86-6.37,6.37-6.37,6.37,2.86,6.37,6.37-2.86,6.37-6.37,6.37Zm0-11.74c-2.96,0-5.37,2.41-5.37,5.37s2.41,5.37,5.37,5.37,5.37-2.41,5.37-5.37-2.41-5.37-5.37-5.37Z" fill="#002346"></path>
  </g>
  <g>
    <circle cx="220.62" cy="190.76" r="5.87" fill="#fff"></circle>
    <path d="M220.62,197.13c-3.51,0-6.37-2.86-6.37-6.37s2.86-6.37,6.37-6.37,6.37,2.86,6.37,6.37-2.86,6.37-6.37,6.37Zm0-11.74c-2.96,0-5.37,2.41-5.37,5.37s2.41,5.37,5.37,5.37,5.37-2.41,5.37-5.37-2.41-5.37-5.37-5.37Z" fill="#002346"></path>
  </g>
  <g>
    <circle cx="220.62" cy="57.1" r="5.87" fill="#fff"></circle>
    <path d="M220.62,63.47c-3.51,0-6.37-2.86-6.37-6.37s2.86-6.37,6.37-6.37,6.37,2.86,6.37,6.37-2.86,6.37-6.37,6.37Zm0-11.74c-2.96,0-5.37,2.41-5.37,5.37s2.41,5.37,5.37,5.37,5.37-2.41,5.37-5.37-2.41-5.37-5.37-5.37Z" fill="#002346"></path>
  </g>
  <g>
    <circle cx="99.27" cy="121.75" r="5.87" fill="#fff"></circle>
    <path d="M99.27,128.12c-3.51,0-6.37-2.86-6.37-6.37s2.86-6.37,6.37-6.37,6.37,2.86,6.37,6.37-2.86,6.37-6.37,6.37Zm0-11.74c-2.96,0-5.37,2.41-5.37,5.37s2.41,5.37,5.37,5.37,5.37-2.41,5.37-5.37-2.41-5.37-5.37-5.37Z" fill="#002346"></path>
  </g>
  <g>
    <circle cx="100.49" cy="188.82" r="5.87" fill="#fff"></circle>
    <path d="M100.49,195.19c-3.51,0-6.37-2.86-6.37-6.37s2.86-6.37,6.37-6.37,6.37,2.86,6.37,6.37-2.86,6.37-6.37,6.37Zm0-11.74c-2.96,0-5.37,2.41-5.37,5.37s2.41,5.37,5.37,5.37,5.37-2.41,5.37-5.37-2.41-5.37-5.37-5.37Z" fill="#002346"></path>
  </g>
  <g>
    <circle cx="99.27" cy="58.23" r="5.87" fill="#fff"></circle>
    <path d="M99.27,64.6c-3.51,0-6.37-2.86-6.37-6.37s2.86-6.37,6.37-6.37,6.37,2.86,6.37,6.37-2.86,6.37-6.37,6.37Zm0-11.74c-2.96,0-5.37,2.41-5.37,5.37s2.41,5.37,5.37,5.37,5.37-2.41,5.37-5.37-2.41-5.37-5.37-5.37Z" fill="#002346"></path>
  </g>
  <path d="M305.97,320.82h-.05l-52.5-5.56c-.27-.03-.47-.27-.44-.55,.03-.27,.28-.48,.55-.44l52.5,5.56c.27,.03,.47,.27,.44,.55-.03,.26-.24,.45-.5,.45h0Z" fill="#002346"></path>
  <path d="M365.98,309.04h-.07l-22.28-3.32c-.27-.04-.46-.3-.42-.57,.04-.27,.3-.46,.57-.42l22.28,3.32c.27,.04,.46,.3,.42,.57-.04,.25-.25,.43-.49,.43h-.01Z" fill="#002346"></path>
  <path d="M484.27,525.24c-.06,0-.13-.01-.19-.04-24.33-9.8-31.76-25.46-33.7-36.86-2.11-12.35,1.61-22.53,1.64-22.63,.1-.26,.39-.39,.64-.29,.26,.1,.39,.38,.29,.64-.04,.1-3.66,10.06-1.59,22.15,1.91,11.14,9.2,26.43,33.08,36.06,.26,.1,.38,.39,.28,.65-.08,.19-.27,.31-.46,.31h0Z" fill="#002346"></path>
  <g>
    <polygon points="576.82 305.39 587.62 343.67 593.68 343.67 579.21 305.39 576.82 305.39" fill="#8A2BE2"></polygon>
    <path d="M594.4,344.17h-7.16l-11.08-39.28h3.4l14.85,39.28h-.01Zm-6.41-1h4.96l-14.09-37.28h-1.38l10.52,37.28h-.01Z" fill="#002346"></path>
  </g>
  <g>
    <polygon points="590.29 305.44 601.09 343.72 607.14 343.72 592.68 305.44 590.29 305.44" fill="#8A2BE2"></polygon>
    <path d="M607.86,344.22h-7.15l-11.08-39.28h3.4l14.84,39.28h-.01Zm-6.4-1h4.95l-14.08-37.28h-1.38l10.52,37.28h-.01Z" fill="#002346"></path>
  </g>
  <g>
    <polygon points="605.01 305.44 615.8 343.72 621.86 343.72 607.4 305.44 605.01 305.44" fill="#8A2BE2"></polygon>
    <path d="M622.58,344.22h-7.16l-11.07-39.28h3.4l14.84,39.28h-.01Zm-6.41-1h4.96l-14.08-37.28h-1.38l10.51,37.28h-.01Z" fill="#002346"></path>
  </g>
  <g>
    <polygon points="619.17 305.22 630.03 343.72 636.11 343.72 621.57 305.22 619.17 305.22" fill="#8A2BE2"></polygon>
    <path d="M636.83,344.22h-7.18l-11.14-39.5h3.41l14.92,39.5h0Zm-6.42-1h4.98l-14.16-37.5h-1.39l10.58,37.5h-.01Z" fill="#002346"></path>
  </g>
  <g>
    <g>
      <path d="M718.37,551.6s21.32-17.93,45.51-.48c0,0,15.19,11.82,5.06,21.95,0,0-10.69,7.32-26.45-5.06,0,0-16.75-13.67-24.13-16.4h.01Z" fill="#7cd295"></path>
      <path d="M760.39,575.73c-4.68,0-10.96-1.56-18.24-7.29-.18-.14-16.76-13.65-23.98-16.32l-.92-.34,.75-.63c.22-.18,21.94-18.01,46.21-.51,.35,.27,8.3,6.53,8.76,14.03,.2,3.22-1.02,6.17-3.63,8.78-.1,.08-3.42,2.27-8.96,2.27h0Zm-40.89-24.27c7.74,3.4,22.7,15.57,23.35,16.11,15.24,11.98,25.67,5.11,25.77,5.04,2.28-2.3,3.39-4.96,3.22-7.84-.43-6.98-8.23-13.13-8.31-13.19-21-15.14-40.03-3.02-44.03-.12h0Z" fill="#002346"></path>
    </g>
    <g>
      <path d="M694.81,542.84s23.5-32.8,9.43-64.88c0,0-15.76-31.51,2.81-41.08,0,0,23.07-9.57,35.45,24.2,0,0,16.6,49.28-47.69,81.76Z" fill="#7cd295"></path>
      <path d="M693,544.39l1.35-1.88c.23-.33,23.14-32.91,9.37-64.32-.15-.29-15.78-32.1,3.07-41.81,.37-.16,8.17-3.3,17.25,.68,8.11,3.56,14.5,11.57,19,23.83,.05,.14,4.16,12.68,.28,29.03-3.57,15.06-14.85,36.56-48.25,53.43l-2.06,1.04h-.01Zm21.52-108.18c-4.27,0-7.2,1.18-7.25,1.2-17.82,9.18-2.68,39.99-2.52,40.3,12.16,27.73-3.66,56.27-8.28,63.64,31.5-16.5,42.27-37.12,45.74-51.64,3.83-16.05-.19-28.33-.23-28.45-4.38-11.94-10.56-19.74-18.38-23.16-3.29-1.44-6.44-1.89-9.07-1.89h0Z" fill="#002346"></path>
    </g>
    <g>
      <path d="M635.08,448.31c-5.83,2.88-9.67,8.79-9.57,15.3,.12,8.13,5.1,19.31,28.64,25.61,0,0,27.61,6.84,30.69,27.34,0,0,7.62-25.4-5.37-49.65-4.98-9.29-13.26-16.48-23.34-19.54-6.33-1.92-13.9-2.58-21.04,.94h-.01Z" fill="#7cd295"></path>
      <path d="M684.65,519.15l-.38-2.51c-2.98-19.88-29.99-26.8-30.26-26.87-23.81-6.37-28.95-17.74-29.08-26.16-.1-6.6,3.79-12.81,9.89-15.81h0c6.24-3.08,13.46-3.41,21.46-.98,10.06,3.05,18.47,10.09,23.68,19.81,12.95,24.18,5.49,49.83,5.42,50.08l-.73,2.43h0Zm-38.46-72.78c-3.9,0-7.53,.82-10.86,2.46h0c-5.71,2.82-9.35,8.62-9.25,14.78,.12,8.02,5.11,18.89,28.22,25.07,.26,.06,25.73,6.59,30.59,25.29,1.48-6.9,4.5-27.33-5.92-46.79-5.06-9.46-13.24-16.3-23.01-19.26-3.41-1.04-6.67-1.55-9.77-1.55Z" fill="#002346"></path>
    </g>
    <g>
      <path d="M633.77,532.68c1.42,2.7,4.04,5.71,8.57,8.87,0,0,17.77,10.3,22.39,24.85,0,0-.44-23.72-13.95-41.73,0,0-1.17-2.22-3.58-3.95-7.96-5.73-17.98,3.28-13.43,11.96Z" fill="#7cd295"></path>
      <path d="M665.36,570.29l-1.18-3.72c-4.5-14.16-21.96-24.43-22.14-24.53-4.21-2.95-7.16-6-8.78-9.1h0c-2.54-4.84-.7-9.6,2.25-12.17,3.5-3.04,8.21-3.24,12-.52,2.49,1.79,3.7,4.05,3.75,4.15,13.41,17.87,14.01,41.75,14.02,41.98l.07,3.9h.01Zm-23.49-50.8c-2.24,0-4.24,.95-5.61,2.15-2.43,2.11-4.4,6.2-1.99,10.78h0c1.54,2.94,4.36,5.85,8.39,8.67,.64,.37,15.27,8.97,21.24,21.67-.73-7.32-3.46-24.25-13.58-37.75-.06-.1-1.2-2.2-3.46-3.83-1.69-1.22-3.4-1.69-4.98-1.69h-.01Z" fill="#002346"></path>
    </g>
    <g>
      <polygon points="655.27 588.83 658.27 647.64 708.17 647.64 711.55 589.39 655.27 588.83" fill="#fff"></polygon>
      <path d="M708.17,648.21h-49.91c-.3,0-.55-.24-.57-.54l-2.99-58.81c0-.16,.05-.31,.16-.42s.24-.18,.41-.17l56.27,.56c.16,0,.3,.07,.41,.18s.16,.27,.15,.42l-3.38,58.25c-.02,.3-.27,.53-.57,.53h.02Zm-49.37-1.14h48.83l3.31-57.12-55.08-.55,2.93,57.66h.01Z" fill="#002346"></path>
    </g>
    <path d="M694.11,589.12h-.04c-.31-.02-.55-.3-.52-.61,.02-.23,1.95-23.45,17.91-34.26,9.46-6.4,21.85-7.26,36.84-2.54,.3,.09,.46,.41,.37,.71s-.41,.47-.71,.37c-14.64-4.61-26.71-3.8-35.86,2.39-15.51,10.5-17.41,33.18-17.42,33.41-.02,.3-.27,.52-.57,.52h0Z" fill="#002346"></path>
    <path d="M685.44,588.72c-.25,0-.48-.16-.55-.41-8.84-31.62,12.57-49.94,16.95-53.29,1.31-1,2.84-2.19,4.32-3.46,38.88-33.46,16.39-70.93,16.16-71.3-.16-.27-.08-.62,.18-.78,.27-.17,.62-.08,.78,.18,.24,.38,23.25,38.65-16.38,72.76-1.5,1.29-3.05,2.5-4.37,3.5-4.28,3.27-25.19,21.17-16.55,52.08,.08,.3-.09,.61-.39,.7-.05,.01-.1,.02-.15,.02h0Z" fill="#002346"></path>
    <path d="M681.39,589.14c-.19,0-.38-.1-.48-.27-13.75-22.16-3.5-50.4-.03-58.52,.87-2.05,1.49-3.76,1.94-5.38,9.66-34.79-19.7-55.9-20-56.11-.26-.18-.32-.53-.14-.79s.53-.32,.79-.14c.3,.21,30.32,21.77,20.44,57.34-.46,1.67-1.1,3.43-1.99,5.52-3.42,8-13.52,35.78-.05,57.48,.17,.27,.08,.62-.18,.78-.09,.06-.2,.09-.3,.09Z" fill="#002346"></path>
    <path d="M666.93,588.79h-.02c-.31-.01-.56-.28-.54-.59,1.49-36.95-20.18-51.65-20.4-51.8-.26-.17-.33-.52-.16-.79,.17-.26,.52-.33,.79-.16,.22,.15,22.43,15.16,20.91,52.79-.01,.31-.26,.55-.57,.55h0Z" fill="#002346"></path>
  </g>
  <g>
    <path d="M319.6,157.51c4.93-4.63,28.29-24.1,45.92,4.6,.26,.43-.08,.97-.58,.92l-44.98-4.48c-.52-.05-.74-.69-.36-1.05h0Z" fill="#002346"></path>
    <path d="M365,163.54h-.11l-44.98-4.48c-.44-.04-.8-.33-.94-.75s-.03-.86,.29-1.16c3.11-2.92,14.22-12.34,26.52-10.69,7.74,1.03,14.52,6.21,20.16,15.4,.22,.36,.22,.81,0,1.17-.21,.33-.56,.52-.94,.52h0Zm-45.4-6.04l.34,.36s-.04,.07-.03,.11,.05,.07,.09,.07l44.98,4.48s.08-.03,.1-.05c.02-.03,.03-.07,0-.11-5.48-8.92-12.02-13.94-19.44-14.93-11.87-1.58-22.67,7.58-25.71,10.43l-.34-.36h0Z" fill="#0d2445"></path>
  </g>
  <g>
    <ellipse cx="473" cy="251.56" rx="13.5" ry="9" fill="#002346"></ellipse>
    <path d="M473,261.06c-7.72,0-14-4.26-14-9.5s6.28-9.5,14-9.5,14,4.26,14,9.5-6.28,9.5-14,9.5Zm0-18c-7.17,0-13,3.81-13,8.5s5.83,8.5,13,8.5,13-3.81,13-8.5-5.83-8.5-13-8.5Z" fill="#0d2445"></path>
  </g>
  <path d="M368.72,422.16l-.95-.33c13.16-37.78,34.31-52.11,34.53-52.25l.55,.83c-.21,.14-21.1,14.31-34.13,51.75h0Z" fill="#002346"></path>
  <path d="M446,351.56c-.09,0-.17-.02-.25-.07l-21.35-12.6c-.24-.14-.32-.45-.18-.68,.14-.24,.45-.32,.68-.18l21.35,12.6c.24,.14,.32,.45,.18,.68-.09,.16-.26,.25-.43,.25Z" fill="#002346"></path>
  <g>
    <ellipse cx="351" cy="170.05" rx="8.5" ry="13.5" transform="translate(12.01 362.95) rotate(-55.49)" fill="#002346"></ellipse>
    <path d="M355.94,180.91c-3.1,0-6.72-1.15-10.04-3.44-6.36-4.37-9.25-11.26-6.44-15.35,2.81-4.09,10.28-3.86,16.64,.52,6.36,4.37,9.25,11.26,6.44,15.35h0c-1.34,1.95-3.75,2.92-6.59,2.92h0Zm-9.91-20.73c-2.5,0-4.59,.83-5.75,2.51-2.5,3.64,.27,9.9,6.18,13.96,5.91,4.06,12.75,4.41,15.25,.77,2.5-3.63-.27-9.9-6.18-13.96-3.17-2.18-6.6-3.29-9.5-3.29h0Z" fill="#0d2445"></path>
  </g>
</svg>
